<svg width="119" height="123" viewBox="0 0 119 123" fill="none" xmlns="http://www.w3.org/2000/svg">
<path d="M51.4147 82.1886C51.6465 85.1055 53.0176 87.8084 55.2286 89.7068C55.2478 89.7223 55.2667 89.739 55.2857 89.7557C59.6838 93.5111 65.0536 93.6121 66.6187 93.588L100.165 91.9477C108.861 91.5242 115.607 84.4914 115.232 76.2399C114.858 67.9896 107.504 61.6437 98.8079 62.0685C98.6669 62.1122 90.4061 63.6745 62.0133 69.0003C55.4832 70.2236 50.921 75.901 51.4147 82.1886Z" fill="#459696"/>
<path d="M45.0628 36.7173C47.5942 35.7079 49.9089 34.2283 51.8833 32.3577C53.8868 30.4863 55.5032 28.2438 56.6416 25.7562L56.8496 25.2888L57.0412 24.8139C57.1773 24.5006 57.2756 24.1722 57.3916 23.8514L57.5592 23.369C57.6172 23.2086 57.655 23.0419 57.7029 22.8778L57.8416 22.3853C57.8857 22.2211 57.9399 22.0595 57.9676 21.8916L58.1782 20.8891C58.2412 20.5545 58.284 20.2174 58.3382 19.8866L58.3773 19.6359C58.3874 19.552 58.3937 19.4668 58.4038 19.3853L58.4529 18.8765C58.4655 18.7074 58.4882 18.5394 58.4933 18.3753L58.5134 17.8653C58.6273 15.156 58.209 12.4506 57.2819 9.90039C57.9125 12.4943 58.1294 15.1706 57.9248 17.8314C57.8206 19.1492 57.6026 20.4556 57.2731 21.7362C57.1899 22.0545 57.0903 22.3703 57.0009 22.6873C56.9517 22.8439 56.9152 23.0056 56.8572 23.1597L56.6908 23.6259C56.5761 23.9354 56.4778 24.2525 56.3441 24.5532L56.1551 25.0093L55.9509 25.4592C55.4069 26.6625 54.7529 27.8135 53.9971 28.8978C53.619 29.4391 53.2257 29.9717 52.7984 30.4792C52.3711 30.9868 51.9325 31.4817 51.4686 31.9567C49.5891 33.8579 47.429 35.4632 45.0628 36.7173Z" fill="#29ABE2"/>
<path d="M54.5126 32.0868C54.9614 31.1098 55.2246 30.0588 55.289 28.9866C55.3478 27.9054 55.2411 26.8217 54.9727 25.7723C54.6881 24.7259 54.2807 23.7165 53.7588 22.7648L53.3416 22.0693C53.2029 21.837 53.0523 21.612 52.8903 21.3951L52.4202 20.7347L51.916 20.1082C51.7484 19.8951 51.5605 19.7009 51.379 19.5017C51.1975 19.3024 51.0185 19.1007 50.8219 18.9152L50.2446 18.3488C50.0454 18.1671 49.845 17.9866 49.6433 17.8099C48.8299 17.106 47.9727 16.4535 47.077 15.8563C45.2931 14.6673 43.3786 13.6844 41.3708 12.9265C43.2656 13.8905 45.0838 14.9964 46.8098 16.2348C47.6634 16.856 48.4834 17.5214 49.2665 18.2285C50.0509 18.9268 50.7835 19.6806 51.4584 20.4841L51.9626 21.0894L52.4239 21.7247C52.7466 22.1382 52.9937 22.6019 53.2773 23.0367C53.7981 23.9407 54.2207 24.8972 54.5378 25.8901C54.8364 26.8917 54.995 27.9294 55.0092 28.9741C55.0129 30.0314 54.8453 31.0825 54.5126 32.0868Z" fill="#29ABE2"/>
<path d="M33.2658 15.1044L34.757 14.1019L33.5041 12.6207C33.3953 12.4921 33.3248 12.3358 33.3007 12.1695C33.2766 12.0032 33.2997 11.8335 33.3675 11.6795C33.4353 11.5256 33.545 11.3935 33.6843 11.2983C33.8236 11.2031 33.9869 11.1486 34.1557 11.1408L36.4813 11.0355L36.4939 9.09569C36.4951 8.9276 36.5435 8.76318 36.6337 8.62101C36.7239 8.47884 36.8524 8.3646 37.0045 8.29121C37.1566 8.21781 37.3263 8.18819 37.4945 8.20568C37.6627 8.22317 37.8226 8.28707 37.9561 8.39018L39.0905 9.26737L40.0737 7.6997C40.1631 7.55709 40.2909 7.4422 40.4426 7.36799C40.5943 7.29378 40.7638 7.26322 40.932 7.27977C41.1003 7.29633 41.2605 7.35934 41.3946 7.46167C41.5287 7.564 41.6313 7.70157 41.6909 7.85885L42.5959 10.2536L44.706 9.58692C44.8671 9.53606 45.0394 9.53102 45.2032 9.57237C45.3671 9.61373 45.516 9.69982 45.6332 9.82092C45.7505 9.94202 45.8313 10.0933 45.8666 10.2577C45.9018 10.422 45.8902 10.593 45.8329 10.7511L45.3677 12.033L46.8122 12.3902C46.9765 12.4303 47.1262 12.5153 47.2443 12.6357C47.3624 12.7561 47.4443 12.907 47.4805 13.0713C47.5167 13.2356 47.5059 13.4066 47.4492 13.5651C47.3926 13.7236 47.2925 13.8631 47.1601 13.9678L45.2946 15.4478L46.7757 17.5017C46.8731 17.6385 46.9301 17.7995 46.9405 17.9667C46.9509 18.134 46.9141 18.3008 46.8344 18.4484C46.7546 18.5961 46.635 18.7186 46.4891 18.8024C46.3431 18.8862 46.1765 18.9279 46.0081 18.9227L44.3102 18.8688L44.406 20.2059C44.4179 20.3736 44.3824 20.5413 44.3035 20.6899C44.2247 20.8386 44.1055 20.9624 43.9595 21.0472C43.8136 21.1321 43.6467 21.1747 43.4776 21.1702C43.3086 21.1657 43.1442 21.1142 43.0031 21.0217L41.3115 19.9139L39.8405 21.9001C39.7402 22.0353 39.6039 22.14 39.4469 22.2022C39.29 22.2644 39.1186 22.2818 38.9523 22.2523C38.7859 22.2229 38.6312 22.1478 38.5055 22.0355C38.3798 21.9232 38.2881 21.7782 38.241 21.6169L37.6939 19.7372L36.1813 20.3475C36.0246 20.4109 35.8532 20.4293 35.6864 20.4008C35.5197 20.3723 35.3643 20.298 35.2378 20.1863C35.1114 20.0745 35.0189 19.9298 34.9709 19.7685C34.9229 19.6072 34.9213 19.4358 34.9662 19.2736L35.4944 17.3663L33.4864 16.7034C33.3265 16.6499 33.1848 16.5531 33.0772 16.4239C32.9697 16.2946 32.9005 16.1381 32.8776 15.9719C32.8547 15.8057 32.8789 15.6365 32.9474 15.4832C33.016 15.33 33.1263 15.1988 33.2658 15.1044Z" fill="#F4BE38"/>
<path opacity="0.47" d="M49.1393 10.3151L51.1031 8.98928L49.4531 7.03942C49.3099 6.87015 49.2172 6.66439 49.1854 6.44544C49.1537 6.2265 49.1842 6.00309 49.2735 5.80048C49.3628 5.59787 49.5073 5.42415 49.6908 5.29896C49.8742 5.17377 50.0892 5.1021 50.3115 5.09206L53.372 4.95297L53.3884 2.40035C53.3899 2.17908 53.4537 1.96265 53.5724 1.7755C53.6911 1.58835 53.8601 1.43794 54.0603 1.34123C54.2605 1.24452 54.4839 1.20539 54.7053 1.22823C54.9266 1.25108 55.1372 1.335 55.3131 1.47052L56.8068 2.6234L58.1 0.559503C58.2176 0.37153 58.3858 0.220036 58.5855 0.12217C58.7852 0.0243048 59.0084 -0.0160267 59.23 0.00575268C59.4516 0.0275321 59.6626 0.110552 59.8391 0.245403C60.0157 0.380253 60.1507 0.561551 60.229 0.768773L61.4214 3.92164L64.1945 3.04445C64.4066 2.97771 64.6332 2.97123 64.8488 3.02574C65.0645 3.08025 65.2605 3.19358 65.4147 3.35295C65.569 3.51232 65.6754 3.71137 65.722 3.92766C65.7685 4.14395 65.7533 4.36887 65.6781 4.57703L65.0655 6.26499L66.9675 6.73491C67.1837 6.78799 67.3806 6.90017 67.5359 7.05876C67.6913 7.21735 67.7988 7.41601 67.8464 7.63224C67.8941 7.84848 67.8798 8.07365 67.8054 8.28226C67.7309 8.49087 67.5992 8.67457 67.4251 8.81259L64.9697 10.7612L66.9196 13.4642C67.0506 13.6441 67.128 13.8569 67.1433 14.0784C67.1585 14.2998 67.1109 14.5212 67.0058 14.717C66.9007 14.9129 66.7424 15.0756 66.5489 15.1864C66.3554 15.2972 66.1344 15.3518 65.9112 15.3439L63.6764 15.2725L63.8025 17.0344C63.8182 17.255 63.7716 17.4755 63.6679 17.6712C63.5641 17.8668 63.4074 18.0296 63.2155 18.1414C63.0235 18.2531 62.8039 18.3092 62.5815 18.3033C62.3592 18.2975 62.1429 18.2299 61.9571 18.1083L59.7299 16.6484L57.7937 19.2637C57.6616 19.442 57.4819 19.58 57.275 19.6619C57.0681 19.7439 56.8422 19.7666 56.6229 19.7275C56.4036 19.6884 56.1998 19.5889 56.0345 19.4405C55.8692 19.2921 55.7489 19.1006 55.6875 18.8877L54.9665 16.4178L52.9762 17.2211C52.7699 17.3044 52.5443 17.3286 52.325 17.2911C52.1056 17.2535 51.9011 17.1556 51.7348 17.0085C51.5685 16.8614 51.4469 16.671 51.3838 16.4587C51.3208 16.2465 51.3187 16.0209 51.3779 15.8076L52.0724 13.3013L49.4254 12.4241C49.214 12.3539 49.0266 12.2262 48.8845 12.0554C48.7425 11.8847 48.6513 11.6778 48.6215 11.4582C48.5918 11.2386 48.6245 11.0151 48.716 10.813C48.8075 10.611 48.9541 10.4385 49.1393 10.3151Z" fill="#F4BE38"/>
<path opacity="0.47" d="M30.736 15.453L32.6998 14.1272L31.0498 12.1774C30.9066 12.0081 30.8138 11.8023 30.7821 11.5834C30.7503 11.3644 30.7809 11.141 30.8702 10.9384C30.9595 10.7358 31.104 10.5621 31.2875 10.4369C31.4709 10.3117 31.6859 10.24 31.9082 10.23L34.9686 10.0909L34.985 7.53829C34.9866 7.31702 35.0503 7.1006 35.1691 6.91345C35.2878 6.7263 35.4568 6.57588 35.657 6.47917C35.8572 6.38246 36.0806 6.34332 36.3019 6.36617C36.5233 6.38902 36.7339 6.47294 36.9098 6.60846L38.4035 7.76135L39.6967 5.69743C39.8143 5.50946 39.9824 5.35798 40.1821 5.26011C40.3818 5.16224 40.6051 5.12191 40.8267 5.14369C41.0483 5.16547 41.2593 5.24849 41.4358 5.38334C41.6124 5.51819 41.7474 5.69949 41.8257 5.90671L43.0181 9.05958L45.7912 8.18239C46.0033 8.11565 46.2299 8.10918 46.4455 8.16369C46.6611 8.2182 46.8571 8.33152 47.0114 8.49089C47.1657 8.65026 47.2721 8.84932 47.3186 9.06561C47.3652 9.2819 47.35 9.50681 47.2748 9.71497L46.6621 11.4029L48.5642 11.8728C48.7804 11.9259 48.9773 12.0381 49.1326 12.1967C49.2879 12.3553 49.3955 12.5539 49.4431 12.7702C49.4907 12.9864 49.4765 13.2116 49.402 13.4202C49.3276 13.6288 49.1958 13.8125 49.0218 13.9505L46.5663 15.8991L48.5163 18.6021C48.6472 18.782 48.7247 18.9948 48.7399 19.2163C48.7552 19.4378 48.7075 19.6591 48.6024 19.855C48.4974 20.0509 48.3391 20.2135 48.1455 20.3243C47.952 20.4352 47.7311 20.4897 47.5079 20.4818L45.2731 20.4104L45.3991 22.1723C45.4149 22.3929 45.3683 22.6135 45.2645 22.8091C45.1608 23.0047 45.0041 23.1676 44.8121 23.2793C44.6202 23.391 44.4006 23.4471 44.1782 23.4413C43.9558 23.4354 43.7396 23.3679 43.5538 23.2462L41.3265 21.7863L39.3904 24.4016C39.2583 24.5799 39.0786 24.7179 38.8717 24.7999C38.6647 24.8819 38.4388 24.9046 38.2196 24.8654C38.0003 24.8263 37.7965 24.7269 37.6312 24.5785C37.4658 24.43 37.3456 24.2385 37.2842 24.0257L36.5632 21.5558L34.5729 22.359C34.3666 22.4423 34.141 22.4666 33.9216 22.429C33.7022 22.3914 33.4978 22.2936 33.3315 22.1465C33.1652 21.9994 33.0436 21.8089 32.9805 21.5967C32.9174 21.3844 32.9154 21.1588 32.9746 20.9455L33.6691 18.4392L31.0221 17.562C30.8107 17.4918 30.6233 17.3641 30.4812 17.1934C30.3391 17.0226 30.248 16.8157 30.2182 16.5961C30.1884 16.3765 30.2212 16.153 30.3127 15.951C30.4042 15.7489 30.5508 15.5764 30.736 15.453Z" fill="#F4BE38"/>
<path d="M51.5432 10.2175L53.0343 9.21497L51.7814 7.73377C51.6726 7.60515 51.6022 7.44886 51.578 7.28254C51.5539 7.11621 51.577 6.94649 51.6448 6.79254C51.7126 6.6386 51.8223 6.50657 51.9616 6.41138C52.1009 6.31618 52.2642 6.26161 52.4331 6.25383L54.7587 6.14857L54.7713 4.20873C54.7724 4.04064 54.8208 3.87621 54.9111 3.73405C55.0013 3.59188 55.1297 3.47764 55.2818 3.40425C55.4339 3.33085 55.6037 3.30121 55.7719 3.3187C55.94 3.33619 56.0999 3.40011 56.2335 3.50322L57.3679 4.38041L58.351 2.81274C58.4405 2.67013 58.5683 2.55522 58.72 2.48101C58.8716 2.40681 59.0411 2.37626 59.2094 2.39281C59.3776 2.40937 59.5378 2.47237 59.6719 2.5747C59.806 2.67703 59.9087 2.81461 59.9683 2.97189L60.8733 5.36662L62.9833 4.69995C63.1444 4.6491 63.3167 4.64406 63.4806 4.68541C63.6444 4.72676 63.7934 4.81285 63.9106 4.93396C64.0278 5.05506 64.1086 5.20635 64.1439 5.37072C64.1792 5.53509 64.1675 5.70599 64.1102 5.86411L63.6451 7.14606L65.0896 7.5032C65.2539 7.5433 65.4036 7.62837 65.5217 7.74876C65.6398 7.86915 65.7216 8.02005 65.7578 8.18432C65.794 8.3486 65.7832 8.51967 65.7266 8.67814C65.67 8.83661 65.5698 8.97613 65.4375 9.08088L63.572 10.5608L65.053 12.6147C65.1504 12.7515 65.2075 12.9125 65.2178 13.0798C65.2282 13.247 65.1914 13.4138 65.1117 13.5615C65.032 13.7091 64.9124 13.8317 64.7664 13.9155C64.6205 13.9992 64.4539 14.0409 64.2854 14.0357L62.5875 13.9819L62.6833 15.3189C62.6953 15.4866 62.6598 15.6543 62.5809 15.803C62.502 15.9516 62.3828 16.0754 62.2369 16.1603C62.0909 16.2451 61.924 16.2877 61.755 16.2832C61.586 16.2787 61.4216 16.2273 61.2804 16.1347L59.5888 15.027L58.1179 17.0132C58.0176 17.1484 57.8812 17.253 57.7243 17.3152C57.5673 17.3775 57.396 17.3948 57.2296 17.3654C57.0633 17.3359 56.9085 17.2608 56.7828 17.1485C56.6571 17.0362 56.5655 16.8913 56.5183 16.73L55.9713 14.8503L54.4587 15.4606C54.302 15.5239 54.1305 15.5424 53.9638 15.5139C53.797 15.4854 53.6416 15.411 53.5152 15.2993C53.3887 15.1875 53.2963 15.0428 53.2483 14.8815C53.2003 14.7202 53.1986 14.5488 53.2436 14.3866L53.7717 12.4794L51.7638 11.8165C51.6038 11.763 51.4621 11.6661 51.3546 11.5369C51.247 11.4077 51.1779 11.2511 51.1549 11.0849C51.132 10.9187 51.1562 10.7495 51.2248 10.5962C51.2934 10.443 51.4036 10.3118 51.5432 10.2175Z" fill="#F4BE38"/>
<path d="M60.2227 122.248H71.4283C74.688 122.248 77.4169 120.377 77.7421 117.921L79.0329 108.203C79.4387 105.14 75.9938 102.58 71.9603 102.949L59.4626 104.089C56.2748 104.381 53.8761 106.43 53.8761 108.863V117.44C53.8761 120.095 56.7223 122.248 60.2227 122.248Z" fill="#459696"/>
<path d="M94.3869 78.514C94.2911 77.9563 94.0541 76.5716 93.2524 76.3836C93.2008 76.3714 93.148 76.3646 93.0949 76.3636C93.0492 76.361 93.0063 76.3409 92.9752 76.3074C92.9442 76.274 92.9274 76.2299 92.9285 76.1844C92.9257 73.2176 92.6421 70.2576 92.0814 67.3436C92.0749 67.3102 92.0781 67.2757 92.0906 67.2441C92.1032 67.2125 92.1246 67.1851 92.1523 67.1652C92.18 67.1453 92.2128 67.1337 92.247 67.1318C92.2811 67.1299 92.3151 67.1377 92.3449 67.1544C92.9209 67.4676 93.4163 67.5879 93.5045 67.4864C93.7163 67.2358 91.8659 65.3449 91.5293 64.7634C91.5216 64.7487 91.5157 64.7331 91.5117 64.717L91.4852 64.6093C91.6113 64.4915 92.6197 65.5992 92.9978 65.3611C93.2978 65.1694 93.0936 64.1757 92.6197 63.4814C92.5718 63.4113 91.7915 62.2935 91.1071 62.4789C91.0836 62.4862 91.0589 62.4887 91.0344 62.4863C91.0099 62.484 90.9861 62.4767 90.9645 62.465C90.9429 62.4533 90.9238 62.4375 90.9085 62.4183C90.8931 62.3992 90.8818 62.3772 90.8751 62.3536C90.2371 60.1575 89.447 58.0078 88.5105 55.9201C83.5316 44.9377 71.2255 29.6044 53.5182 28.6834C53.4878 28.6819 53.4581 28.6728 53.4322 28.6569C53.4062 28.641 53.3847 28.6188 53.3697 28.5924C53.3547 28.566 53.3467 28.5362 53.3465 28.5059C53.3462 28.4755 53.3537 28.4456 53.3682 28.419C54.0363 27.2285 54.5581 26.0117 54.1371 25.6621C53.677 25.2711 52.1758 25.9866 51.5304 26.924C51.402 27.111 51.2962 27.3125 51.2153 27.5242C51.1084 27.829 51.0634 28.1519 51.083 28.4741C51.0836 28.4979 51.0796 28.5217 51.071 28.544C51.0624 28.5663 51.0495 28.5867 51.033 28.6041C51.0165 28.6214 50.9967 28.6353 50.9748 28.6451C50.9529 28.6548 50.9293 28.6601 50.9053 28.6608L50.5914 28.6696C50.5639 28.6705 50.5366 28.6653 50.5115 28.6542C50.4864 28.6431 50.4641 28.6265 50.4464 28.6057C50.0267 28.1044 49.5086 27.4102 49.1569 27.5154C48.9137 27.5881 48.7713 28.038 48.7599 28.6332C48.7592 28.6768 48.7423 28.7185 48.7125 28.7504C48.6827 28.7823 48.6422 28.8022 48.5986 28.8062C26.3334 31.0267 16.1676 55.4727 15.0974 58.1669C14.9285 58.5918 14.6676 59.2484 14.3613 60.1068C13.666 62.0843 13.0981 64.1038 12.6609 66.1531C12.6551 66.1786 12.6437 66.2026 12.6275 66.2233C12.6114 66.2439 12.5909 66.2608 12.5674 66.2728C12.544 66.2847 12.5182 66.2914 12.4919 66.2924C12.4656 66.2934 12.4394 66.2886 12.4151 66.2784C12.1911 66.1859 11.9537 66.1296 11.7118 66.1118C10.2673 66.0052 9.02694 67.3223 9.1908 67.7408C9.29668 68.009 9.94711 67.8373 10.6568 67.8148C10.6979 67.8135 10.7382 67.8263 10.771 67.8509C10.8038 67.8756 10.8271 67.9106 10.8371 67.9503C10.8471 67.9899 10.8432 68.0318 10.826 68.0689C10.8087 68.106 10.7793 68.1362 10.7425 68.1544C10.1374 68.4513 9.67233 68.8774 9.68998 69.2095C9.72024 69.7659 11.1307 70.0867 11.7988 70.4626C11.8303 70.48 11.8558 70.5064 11.8722 70.5383C11.8886 70.5702 11.8951 70.6062 11.8908 70.6418C11.8757 70.7571 11.8618 70.8736 11.8466 70.9902C11.8429 71.0234 11.8298 71.0549 11.8088 71.081C11.7878 71.1072 11.7599 71.127 11.7282 71.1381C11.4181 71.2433 11.0009 71.3724 10.7198 71.7546C10.111 72.5729 10.4463 74.1067 10.982 74.2471C11.0884 74.2688 11.1992 74.251 11.2933 74.1969C11.3214 74.1826 11.3528 74.1759 11.3844 74.1775C11.4159 74.179 11.4465 74.1888 11.4731 74.2058C11.4996 74.2228 11.5212 74.2465 11.5357 74.2744C11.5501 74.3023 11.557 74.3335 11.5555 74.3649C11.2668 79.8373 11.8618 86.2132 14.5706 92.455C14.5822 92.4794 14.5881 92.5061 14.5878 92.5331C14.5875 92.5601 14.5811 92.5867 14.5689 92.6108C14.5568 92.635 14.5393 92.6561 14.5177 92.6725C14.4961 92.6889 14.4711 92.7002 14.4445 92.7056C13.2029 92.94 12.163 93.2871 12.1757 93.4136C12.1946 93.5665 13.8055 93.4989 14.9714 93.5628C15.0034 93.5646 15.0344 93.5751 15.061 93.5929C15.0876 93.6108 15.1089 93.6354 15.1226 93.6643C15.2067 93.8372 15.2907 94.0101 15.3747 94.1831C15.395 94.2237 15.399 94.2706 15.3859 94.3141C15.3728 94.3576 15.3436 94.3945 15.3041 94.4174C14.8806 94.658 14.4067 95.0076 14.1622 95.5916C14.0815 95.7821 13.9391 96.1191 14.0676 96.4387C14.3462 97.1304 15.7718 97.4525 16.7764 97.0026C16.816 96.9851 16.8606 96.9826 16.9019 96.9955C16.9433 97.0084 16.9784 97.0359 17.0008 97.0728C17.0638 97.1743 17.1268 97.2745 17.1911 97.376L17.2251 97.4287C17.2443 97.4577 17.2545 97.4917 17.2545 97.5264C17.2545 97.5611 17.2443 97.5951 17.2251 97.6242C16.6365 98.5402 16.5382 99.6906 16.755 99.8309C16.9503 99.9562 17.4092 99.2657 18.0306 98.9023C18.0695 98.8799 18.1154 98.8725 18.1594 98.8818C18.2034 98.8911 18.2424 98.9162 18.2688 98.9525C19.8107 101.081 21.5971 103.024 23.5918 104.741C23.6151 104.76 23.6329 104.786 23.6435 104.814C23.654 104.843 23.6571 104.873 23.6523 104.903C23.6475 104.933 23.635 104.961 23.616 104.985C23.597 105.009 23.5722 105.027 23.5439 105.039C23.1642 105.191 22.8466 105.465 22.6414 105.817C22.3767 106.288 22.2633 107.035 22.5608 107.244C23.0649 107.592 24.2712 106.154 24.7855 106.477C25.3855 106.853 24.27 109.152 24.6217 109.331C24.8914 109.469 26.1884 108.454 26.3599 107.208C26.3635 107.178 26.375 107.148 26.3933 107.124C26.4115 107.099 26.4359 107.079 26.4641 107.067C26.4923 107.054 26.5233 107.049 26.554 107.052C26.5848 107.055 26.6143 107.065 26.6397 107.083C38.9319 115.533 53.9921 114.752 54.8493 114.694C57.1799 114.536 69.8805 113.466 80.2203 104.491C80.2428 104.471 80.2701 104.457 80.2996 104.45C80.3291 104.444 80.3598 104.445 80.3888 104.453C80.4179 104.461 80.4444 104.477 80.4659 104.498C80.4873 104.519 80.503 104.545 80.5115 104.574C80.5477 104.71 80.595 104.842 80.6526 104.97C80.7295 105.138 81.0535 105.847 81.5186 105.855C81.9535 105.855 82.4123 105.246 82.4387 104.716C82.4476 104.563 82.4135 104.545 82.2976 103.713C82.2345 103.268 82.2383 103.222 82.2698 103.173C82.537 102.768 83.9085 103.489 84.1442 103.153C84.2475 103.003 84.0471 102.741 83.2908 101.708C83.2665 101.675 83.2543 101.635 83.2564 101.594C83.2585 101.553 83.2746 101.514 83.3022 101.484C84.5829 100.08 85.7527 98.5794 86.8013 96.9963L86.8202 96.9675C86.9147 97.7006 87.0433 98.2206 87.1328 98.2206C87.2752 98.2206 87.4063 96.8785 87.5928 95.7758C87.597 95.7537 87.6052 95.7325 87.6168 95.7131C87.779 95.445 87.9366 95.1764 88.0895 94.9074C88.1065 94.8775 88.1317 94.8531 88.1622 94.8371C88.1928 94.8211 88.2272 94.8142 88.2616 94.8171C88.296 94.82 88.3288 94.8326 88.3562 94.8535C88.3835 94.8744 88.4043 94.9027 88.4159 94.9349C88.5962 95.4362 88.8723 96.143 89.563 96.544C89.742 96.648 90.0596 96.8309 90.3962 96.7457C91.1701 96.5502 91.6957 95.0139 91.2382 93.9462C90.9432 93.2595 90.3041 92.9111 89.5201 92.5678C89.4982 92.5582 89.4785 92.5443 89.462 92.527C89.4456 92.5097 89.4328 92.4892 89.4245 92.4669C89.4161 92.4446 89.4124 92.4209 89.4134 92.3971C89.4145 92.3733 89.4203 92.3499 89.4306 92.3284C90.8977 89.1913 91.9119 85.864 92.4432 82.445C92.4482 82.4121 92.4624 82.3813 92.4841 82.356C92.5058 82.3307 92.5342 82.312 92.5661 82.3019C92.598 82.2919 92.6321 82.2909 92.6645 82.2992C92.6969 82.3074 92.7264 82.3245 92.7495 82.3485C93.0419 82.6581 93.2852 82.8272 93.3797 82.7884C93.5486 82.717 93.2537 81.9839 93.1831 79.7119C93.144 78.5202 93.2134 78.4074 93.2537 78.4024C93.4554 78.3736 93.7932 80.9275 94.136 80.9087C94.368 80.8811 94.5848 79.6731 94.3869 78.514Z" fill="#4EADAF"/>
<path d="M86.462 77.6369C81.7644 77.6369 77.9563 73.8499 77.9563 69.1783C77.9563 64.5068 81.7644 60.7197 86.462 60.7197C91.1596 60.7197 94.9678 64.5068 94.9678 69.1783C94.9678 73.8499 91.1596 77.6369 86.462 77.6369Z" fill="#E37A39"/>
<path d="M42.089 78.1382C37.3914 78.1382 33.5833 74.3511 33.5833 69.6796C33.5833 65.008 37.3914 61.2209 42.089 61.2209C46.7866 61.2209 50.5947 65.008 50.5947 69.6796C50.5947 74.3511 46.7866 78.1382 42.089 78.1382Z" fill="#E37A39"/>
<path d="M26.5968 60.6031C24.1086 59.6645 21.3696 59.6269 18.9482 60.5492L18.8877 60.5731C14.1697 62.3989 12.1592 66.3537 11.6198 67.5266L0.952301 93.108C-1.81194 99.7395 1.64809 107.463 8.68033 110.36C15.7126 113.257 23.6536 110.234 26.4166 103.593C26.433 103.468 28.0867 96.7258 33.8169 73.5592C35.1341 68.2334 32.0245 62.657 26.5968 60.6031Z" fill="#459696"/>
<path d="M41.5662 123H30.7336C27.5824 123 24.9455 121.129 24.6303 118.673L23.3837 108.955C22.9905 105.892 26.3207 103.332 30.2206 103.701L42.2998 104.841C45.3817 105.133 47.6997 107.182 47.6997 109.615V118.192C47.6997 120.847 44.9544 123 41.5662 123Z" fill="#459696"/>
<path d="M80.428 66.3586C72.746 66.3586 66.5185 59.9486 66.5185 52.0416C66.5185 44.1345 72.746 37.7246 80.428 37.7246C88.11 37.7246 94.3374 44.1345 94.3374 52.0416C94.3374 59.9486 88.11 66.3586 80.428 66.3586Z" fill="#E2E2E2"/>
<path d="M76.0143 60.0004C70.7695 60.0004 66.5178 55.6248 66.5178 50.2273C66.5178 44.8297 70.7695 40.4541 76.0143 40.4541C81.259 40.4541 85.5107 44.8297 85.5107 50.2273C85.5107 55.6248 81.259 60.0004 76.0143 60.0004Z" fill="black"/>
<path d="M45.4673 67.6119C37.0244 67.6119 30.1801 60.6409 30.1801 52.0418C30.1801 43.4427 37.0244 36.4717 45.4673 36.4717C53.9101 36.4717 60.7544 43.4427 60.7544 52.0418C60.7544 60.6409 53.9101 67.6119 45.4673 67.6119Z" fill="#E2E2E2"/>
<path d="M50.3176 60.697C44.5535 60.697 39.8808 55.9382 39.8808 50.068C39.8808 44.1977 44.5535 39.439 50.3176 39.439C56.0817 39.439 60.7544 44.1977 60.7544 50.068C60.7544 55.9382 56.0817 60.697 50.3176 60.697Z" fill="black"/>
<path d="M52.1761 49.3402C49.7715 48.2178 48.3584 46.1724 49.02 44.7716C49.6815 43.3708 52.1671 43.1451 54.5718 44.2675C56.9764 45.3899 58.3895 47.4354 57.728 48.8362C57.0664 50.237 54.5808 50.4626 52.1761 49.3402Z" fill="white"/>
<path d="M76.7557 49.8419C74.3511 48.7196 72.938 46.6741 73.5995 45.2733C74.2611 43.8725 76.7467 43.6468 79.1513 44.7692C81.556 45.8916 82.9691 47.9371 82.3076 49.3379C81.646 50.7387 79.1604 50.9643 76.7557 49.8419Z" fill="white"/>
<path d="M61.8161 26.4729C61.3573 25.0569 61.4922 22.7135 64.8413 18.8151C64.968 18.6668 65.0586 18.4913 65.1059 18.3025C65.1532 18.1136 65.156 17.9165 65.114 17.7264C65.072 17.5363 64.9864 17.3585 64.8639 17.2067C64.7414 17.0549 64.5852 16.9333 64.4077 16.8514C64.223 16.7664 64.0206 16.7265 63.8172 16.7353C63.6139 16.7441 63.4157 16.8012 63.2392 16.9018C63.0626 17.0025 62.9129 17.1437 62.8026 17.3137C62.6923 17.4838 62.6246 17.6776 62.6052 17.879C62.101 22.8201 60.325 25.2236 58.7267 26.5105C50.2814 33.3112 30.8902 21.9303 18.1013 27.2624C16.9366 27.7486 13.6694 29.112 13.6341 31.0368C13.5951 33.1082 17.3198 34.6947 17.94 34.9591C26.8402 38.7523 37.4901 32.0092 38.172 33.3C38.8539 34.5907 27.9356 40.0957 28.8772 43.1608C29.4658 45.0781 34.6426 45.8839 39.0871 44.8312C47.9105 42.741 51.7801 33.8238 54.3162 35.0255C55.7292 35.6934 54.4952 38.4441 56.2221 43.0819C56.5196 43.8776 59.2044 51.0868 63.4169 51.0718C66.6047 51.0618 69.8769 46.9152 69.8971 43.1696C69.9261 37.9967 63.7472 34.815 64.6169 33.4879C65.261 32.5055 69.3551 33.1709 72.5126 35.5706C77.2684 39.1871 76.0419 43.8099 79.7288 45.3575C83.3313 46.8613 88.038 43.9453 90.264 41.8939C91.9026 40.3902 93.8689 38.5706 93.5551 36.8513C92.4395 30.7849 64.4354 34.5631 61.8161 26.4729Z" fill="#C4D650"/>
</svg>
