<svg width="200" height="344" viewBox="0 0 200 344" fill="none" xmlns="http://www.w3.org/2000/svg">
<g filter="url(#filter0_d_715_3)">
<rect x="32" y="20" width="136" height="280" rx="29" fill="white"/>
</g>
<path d="M66.2323 275V268.4H66.8403L70.3843 273.964V268.4H70.9923V275H70.3843L66.8403 269.444V275H66.2323ZM74.8503 275.128C74.421 275.128 74.037 275.033 73.6983 274.844C73.3623 274.655 73.0983 274.397 72.9063 274.072C72.7143 273.744 72.6183 273.376 72.6183 272.968C72.6183 272.661 72.673 272.376 72.7823 272.112C72.8943 271.845 73.049 271.612 73.2463 271.412C73.4436 271.212 73.673 271.056 73.9343 270.944C74.1956 270.832 74.4743 270.776 74.7703 270.776C75.1756 270.776 75.5356 270.865 75.8503 271.044C76.1676 271.22 76.4183 271.464 76.6023 271.776C76.789 272.088 76.8876 272.448 76.8983 272.856C76.8983 272.888 76.897 272.915 76.8943 272.936C76.8943 272.955 76.8916 272.979 76.8863 273.008H73.1983C73.1983 273.328 73.2703 273.611 73.4143 273.856C73.5583 274.101 73.7556 274.295 74.0063 274.436C74.2596 274.575 74.549 274.644 74.8743 274.644C75.1836 274.644 75.461 274.58 75.7063 274.452C75.9543 274.321 76.161 274.135 76.3263 273.892L76.7583 274.124C76.5636 274.441 76.2983 274.688 75.9623 274.864C75.629 275.04 75.2583 275.128 74.8503 275.128ZM73.2303 272.568H76.3143C76.2796 272.312 76.1903 272.087 76.0463 271.892C75.9023 271.695 75.7196 271.54 75.4983 271.428C75.2796 271.316 75.0396 271.26 74.7783 271.26C74.509 271.26 74.2636 271.316 74.0423 271.428C73.821 271.537 73.6383 271.691 73.4943 271.888C73.353 272.083 73.265 272.309 73.2303 272.568ZM80.1781 275.128C79.8714 275.128 79.5834 275.075 79.3141 274.968C79.0447 274.859 78.8087 274.705 78.6061 274.508C78.4034 274.311 78.2447 274.08 78.1301 273.816C78.0154 273.552 77.9581 273.264 77.9581 272.952C77.9581 272.643 78.0141 272.356 78.1261 272.092C78.2381 271.828 78.3941 271.597 78.5941 271.4C78.7967 271.203 79.0327 271.049 79.3021 270.94C79.5714 270.831 79.8634 270.776 80.1781 270.776C80.4474 270.776 80.7034 270.816 80.9461 270.896C81.1887 270.976 81.3981 271.087 81.5741 271.228L81.3341 271.62C81.0354 271.388 80.6727 271.272 80.2461 271.272C79.9101 271.272 79.6141 271.347 79.3581 271.496C79.1047 271.643 78.9074 271.844 78.7661 272.1C78.6247 272.353 78.5541 272.637 78.5541 272.952C78.5541 273.269 78.6261 273.556 78.7701 273.812C78.9141 274.065 79.1141 274.265 79.3701 274.412C79.6261 274.559 79.9194 274.632 80.2501 274.632C80.4581 274.632 80.6541 274.603 80.8381 274.544C81.0247 274.483 81.1887 274.396 81.3301 274.284L81.5741 274.676C81.3954 274.815 81.1861 274.924 80.9461 275.004C80.7061 275.087 80.4501 275.128 80.1781 275.128ZM84.7644 275.128C84.335 275.128 83.951 275.033 83.6124 274.844C83.2764 274.655 83.0124 274.397 82.8204 274.072C82.6284 273.744 82.5324 273.376 82.5324 272.968C82.5324 272.661 82.587 272.376 82.6964 272.112C82.8084 271.845 82.963 271.612 83.1604 271.412C83.3577 271.212 83.587 271.056 83.8484 270.944C84.1097 270.832 84.3884 270.776 84.6844 270.776C85.0897 270.776 85.4497 270.865 85.7644 271.044C86.0817 271.22 86.3324 271.464 86.5164 271.776C86.703 272.088 86.8017 272.448 86.8124 272.856C86.8124 272.888 86.811 272.915 86.8084 272.936C86.8084 272.955 86.8057 272.979 86.8004 273.008H83.1124C83.1124 273.328 83.1844 273.611 83.3284 273.856C83.4724 274.101 83.6697 274.295 83.9204 274.436C84.1737 274.575 84.463 274.644 84.7884 274.644C85.0977 274.644 85.375 274.58 85.6204 274.452C85.8684 274.321 86.075 274.135 86.2404 273.892L86.6724 274.124C86.4777 274.441 86.2124 274.688 85.8764 274.864C85.543 275.04 85.1724 275.128 84.7644 275.128ZM83.1444 272.568H86.2284C86.1937 272.312 86.1044 272.087 85.9604 271.892C85.8164 271.695 85.6337 271.54 85.4124 271.428C85.1937 271.316 84.9537 271.26 84.6924 271.26C84.423 271.26 84.1777 271.316 83.9564 271.428C83.735 271.537 83.5524 271.691 83.4084 271.888C83.267 272.083 83.179 272.309 83.1444 272.568ZM89.2209 275.128C88.8822 275.128 88.5835 275.047 88.3249 274.884C88.0662 274.719 87.8649 274.485 87.7209 274.184L88.0329 273.848C88.1609 274.109 88.3275 274.313 88.5329 274.46C88.7382 274.604 88.9662 274.676 89.2169 274.676C89.3849 274.676 89.5382 274.641 89.6769 274.572C89.8182 274.503 89.9302 274.404 90.0129 274.276C90.0982 274.145 90.1409 273.991 90.1409 273.812C90.1409 273.649 90.1009 273.521 90.0209 273.428C89.9435 273.335 89.8289 273.255 89.6769 273.188C89.5275 273.119 89.3409 273.041 89.1169 272.956C88.9435 272.887 88.7755 272.808 88.6129 272.72C88.4502 272.632 88.3155 272.521 88.2089 272.388C88.1049 272.252 88.0529 272.08 88.0529 271.872C88.0529 271.661 88.1089 271.475 88.2209 271.312C88.3329 271.147 88.4875 271.017 88.6849 270.924C88.8822 270.828 89.1062 270.78 89.3569 270.78C89.5862 270.78 89.8009 270.829 90.0009 270.928C90.2035 271.027 90.3849 271.167 90.5449 271.348L90.2769 271.688C90.0315 271.365 89.7262 271.204 89.3609 271.204C89.1369 271.204 88.9542 271.263 88.8129 271.38C88.6742 271.497 88.6049 271.651 88.6049 271.84C88.6049 271.976 88.6489 272.089 88.7369 272.18C88.8249 272.271 88.9395 272.348 89.0809 272.412C89.2249 272.476 89.3795 272.54 89.5449 272.604C89.7849 272.695 89.9929 272.785 90.1689 272.876C90.3475 272.967 90.4862 273.083 90.5849 273.224C90.6835 273.363 90.7329 273.552 90.7329 273.792C90.7329 274.067 90.6689 274.304 90.5409 274.504C90.4129 274.704 90.2342 274.859 90.0049 274.968C89.7782 275.075 89.5169 275.128 89.2209 275.128ZM92.1138 275V270.904H92.6978V275H92.1138ZM92.4098 270.084C92.3378 270.084 92.2725 270.067 92.2138 270.032C92.1578 269.997 92.1125 269.951 92.0778 269.892C92.0431 269.833 92.0258 269.769 92.0258 269.7C92.0258 269.631 92.0431 269.568 92.0778 269.512C92.1125 269.453 92.1578 269.407 92.2138 269.372C92.2725 269.337 92.3378 269.32 92.4098 269.32C92.4791 269.32 92.5418 269.337 92.5978 269.372C92.6538 269.407 92.6991 269.452 92.7338 269.508C92.7711 269.564 92.7898 269.628 92.7898 269.7C92.7898 269.769 92.7711 269.833 92.7338 269.892C92.6991 269.951 92.6538 269.997 92.5978 270.032C92.5418 270.067 92.4791 270.084 92.4098 270.084ZM95.4425 275.128C95.1358 275.128 94.8972 275.025 94.7265 274.82C94.5585 274.612 94.4745 274.32 94.4745 273.944V271.344H94.0585V270.904H94.4745V269.372H95.0585V270.904H96.0785V271.344H95.0585V273.912C95.0585 274.139 95.1025 274.312 95.1905 274.432C95.2785 274.552 95.4038 274.612 95.5665 274.612C95.7238 274.612 95.8625 274.568 95.9825 274.48L96.1305 274.944C96.0398 275 95.9332 275.044 95.8105 275.076C95.6878 275.111 95.5652 275.128 95.4425 275.128ZM99.1393 275.128C98.7553 275.128 98.4086 275.035 98.0993 274.848C97.7926 274.659 97.5486 274.4 97.3673 274.072C97.1886 273.744 97.0993 273.369 97.0993 272.948C97.0993 272.532 97.1873 272.161 97.3633 271.836C97.5419 271.508 97.7846 271.249 98.0913 271.06C98.4006 270.871 98.7499 270.776 99.1393 270.776C99.5099 270.776 99.8459 270.863 100.147 271.036C100.449 271.209 100.678 271.449 100.835 271.756V270.904H101.419V275H100.835V274.136C100.659 274.445 100.423 274.688 100.127 274.864C99.8313 275.04 99.5019 275.128 99.1393 275.128ZM99.2833 274.62C99.5899 274.62 99.8606 274.549 100.095 274.408C100.333 274.264 100.519 274.067 100.655 273.816C100.791 273.563 100.859 273.275 100.859 272.952C100.859 272.627 100.791 272.339 100.655 272.088C100.522 271.837 100.337 271.641 100.099 271.5C99.8619 271.356 99.5899 271.284 99.2833 271.284C98.9766 271.284 98.7046 271.356 98.4673 271.5C98.2299 271.641 98.0433 271.837 97.9073 272.088C97.7713 272.339 97.7033 272.627 97.7033 272.952C97.7033 273.275 97.7713 273.563 97.9073 273.816C98.0433 274.067 98.2299 274.264 98.4673 274.408C98.7046 274.549 98.9766 274.62 99.2833 274.62ZM107.16 275.124C106.805 275.124 106.472 275.067 106.16 274.952C105.851 274.837 105.581 274.673 105.352 274.46C105.125 274.247 104.957 273.991 104.848 273.692L105.332 273.452C105.463 273.812 105.692 274.096 106.02 274.304C106.351 274.512 106.733 274.616 107.168 274.616C107.52 274.616 107.827 274.548 108.088 274.412C108.352 274.273 108.556 274.079 108.7 273.828C108.847 273.577 108.92 273.281 108.92 272.94C108.92 272.561 108.833 272.235 108.66 271.96C108.487 271.685 108.251 271.473 107.952 271.324C107.653 271.175 107.313 271.1 106.932 271.1C106.599 271.1 106.285 271.165 105.992 271.296C105.699 271.427 105.429 271.619 105.184 271.872L105.724 268.4H109.092V268.936H106.228L105.892 271.112C106.399 270.792 106.953 270.671 107.556 270.748C107.94 270.777 108.279 270.887 108.572 271.076C108.868 271.265 109.099 271.517 109.264 271.832C109.432 272.144 109.516 272.507 109.516 272.92C109.516 273.405 109.408 273.812 109.192 274.14C108.976 274.468 108.689 274.715 108.332 274.88C107.977 275.043 107.587 275.124 107.16 275.124ZM112.965 275.124C112.61 275.124 112.277 275.067 111.965 274.952C111.655 274.837 111.386 274.673 111.157 274.46C110.93 274.247 110.762 273.991 110.653 273.692L111.137 273.452C111.267 273.812 111.497 274.096 111.825 274.304C112.155 274.512 112.538 274.616 112.973 274.616C113.325 274.616 113.631 274.548 113.893 274.412C114.157 274.273 114.361 274.079 114.505 273.828C114.651 273.577 114.725 273.281 114.725 272.94C114.725 272.561 114.638 272.235 114.465 271.96C114.291 271.685 114.055 271.473 113.757 271.324C113.458 271.175 113.118 271.1 112.737 271.1C112.403 271.1 112.09 271.165 111.797 271.296C111.503 271.427 111.234 271.619 110.989 271.872L111.529 268.4H114.897V268.936H112.033L111.697 271.112C112.203 270.792 112.758 270.671 113.361 270.748C113.745 270.777 114.083 270.887 114.377 271.076C114.673 271.265 114.903 271.517 115.069 271.832C115.237 272.144 115.321 272.507 115.321 272.92C115.321 273.405 115.213 273.812 114.997 274.14C114.781 274.468 114.494 274.715 114.137 274.88C113.782 275.043 113.391 275.124 112.965 275.124ZM118.613 277.2C118.096 277.2 117.659 277.099 117.301 276.896C116.944 276.693 116.679 276.397 116.505 276.008L116.997 275.78C117.123 276.063 117.331 276.287 117.621 276.452C117.912 276.62 118.243 276.704 118.613 276.704C118.925 276.704 119.204 276.641 119.449 276.516C119.697 276.393 119.892 276.215 120.033 275.98C120.177 275.745 120.249 275.464 120.249 275.136V274.136C120.079 274.445 119.844 274.688 119.545 274.864C119.249 275.04 118.919 275.128 118.553 275.128C118.172 275.128 117.827 275.035 117.517 274.848C117.211 274.661 116.967 274.404 116.785 274.076C116.607 273.748 116.517 273.373 116.517 272.952C116.517 272.533 116.607 272.161 116.785 271.836C116.964 271.508 117.207 271.249 117.513 271.06C117.823 270.871 118.173 270.776 118.565 270.776C118.928 270.776 119.257 270.863 119.553 271.036C119.852 271.209 120.084 271.449 120.249 271.756V270.904H120.833V275.112C120.833 275.565 120.744 275.947 120.565 276.256C120.387 276.568 120.131 276.803 119.797 276.96C119.467 277.12 119.072 277.2 118.613 277.2ZM118.693 274.62C119.003 274.62 119.276 274.549 119.513 274.408C119.751 274.264 119.937 274.067 120.073 273.816C120.209 273.563 120.277 273.276 120.277 272.956C120.277 272.631 120.209 272.343 120.073 272.092C119.937 271.839 119.751 271.641 119.513 271.5C119.276 271.356 119.004 271.284 118.697 271.284C118.391 271.284 118.119 271.356 117.881 271.5C117.644 271.641 117.457 271.839 117.321 272.092C117.185 272.343 117.117 272.631 117.117 272.956C117.117 273.276 117.184 273.563 117.317 273.816C117.453 274.067 117.64 274.264 117.877 274.408C118.117 274.549 118.389 274.62 118.693 274.62ZM126.358 275.128C125.974 275.128 125.627 275.035 125.318 274.848C125.011 274.661 124.767 274.404 124.586 274.076C124.407 273.748 124.318 273.373 124.318 272.952C124.318 272.533 124.407 272.161 124.586 271.836C124.765 271.508 125.007 271.249 125.314 271.06C125.623 270.871 125.974 270.776 126.366 270.776C126.731 270.776 127.062 270.863 127.358 271.036C127.654 271.209 127.886 271.449 128.054 271.756V268.116H128.638V275H128.054V274.136C127.881 274.445 127.645 274.688 127.346 274.864C127.05 275.04 126.721 275.128 126.358 275.128ZM126.498 274.62C126.805 274.62 127.077 274.549 127.314 274.408C127.551 274.264 127.738 274.067 127.874 273.816C128.01 273.563 128.078 273.276 128.078 272.956C128.078 272.631 128.01 272.343 127.874 272.092C127.741 271.839 127.554 271.641 127.314 271.5C127.077 271.356 126.805 271.284 126.498 271.284C126.194 271.284 125.923 271.356 125.686 271.5C125.449 271.641 125.262 271.839 125.126 272.092C124.99 272.343 124.922 272.631 124.922 272.956C124.922 273.279 124.989 273.565 125.122 273.816C125.258 274.067 125.445 274.264 125.682 274.408C125.922 274.549 126.194 274.62 126.498 274.62ZM132.28 275.128C131.851 275.128 131.467 275.033 131.128 274.844C130.792 274.655 130.528 274.397 130.336 274.072C130.144 273.744 130.048 273.376 130.048 272.968C130.048 272.661 130.103 272.376 130.212 272.112C130.324 271.845 130.479 271.612 130.676 271.412C130.873 271.212 131.103 271.056 131.364 270.944C131.625 270.832 131.904 270.776 132.2 270.776C132.605 270.776 132.965 270.865 133.28 271.044C133.597 271.22 133.848 271.464 134.032 271.776C134.219 272.088 134.317 272.448 134.328 272.856C134.328 272.888 134.327 272.915 134.324 272.936C134.324 272.955 134.321 272.979 134.316 273.008H130.628C130.628 273.328 130.7 273.611 130.844 273.856C130.988 274.101 131.185 274.295 131.436 274.436C131.689 274.575 131.979 274.644 132.304 274.644C132.613 274.644 132.891 274.58 133.136 274.452C133.384 274.321 133.591 274.135 133.756 273.892L134.188 274.124C133.993 274.441 133.728 274.688 133.392 274.864C133.059 275.04 132.688 275.128 132.28 275.128ZM130.66 272.568H133.744C133.709 272.312 133.62 272.087 133.476 271.892C133.332 271.695 133.149 271.54 132.928 271.428C132.709 271.316 132.469 271.26 132.208 271.26C131.939 271.26 131.693 271.316 131.472 271.428C131.251 271.537 131.068 271.691 130.924 271.888C130.783 272.083 130.695 272.309 130.66 272.568ZM82.6647 286.08V279.904H83.2487V280.752C83.414 280.445 83.6447 280.207 83.9407 280.036C84.2394 279.863 84.57 279.776 84.9327 279.776C85.3247 279.776 85.6754 279.871 85.9847 280.06C86.294 280.249 86.538 280.508 86.7167 280.836C86.8954 281.161 86.9847 281.533 86.9847 281.952C86.9847 282.365 86.8954 282.737 86.7167 283.068C86.5407 283.396 86.298 283.655 85.9887 283.844C85.682 284.033 85.3327 284.128 84.9407 284.128C84.5834 284.128 84.2554 284.04 83.9567 283.864C83.658 283.688 83.422 283.445 83.2487 283.136V286.08H82.6647ZM84.8047 283.62C85.1114 283.62 85.3834 283.549 85.6207 283.408C85.858 283.264 86.0434 283.067 86.1767 282.816C86.3127 282.565 86.3807 282.279 86.3807 281.956C86.3807 281.631 86.3127 281.343 86.1767 281.092C86.0407 280.839 85.854 280.641 85.6167 280.5C85.382 280.356 85.1114 280.284 84.8047 280.284C84.498 280.284 84.226 280.356 83.9887 280.5C83.7514 280.641 83.5647 280.837 83.4287 281.088C83.2927 281.339 83.2247 281.627 83.2247 281.952C83.2247 282.275 83.2927 282.563 83.4287 282.816C83.5647 283.067 83.7514 283.264 83.9887 283.408C84.2287 283.549 84.5007 283.62 84.8047 283.62ZM88.4147 284V279.904H88.9987V280.508C89.1294 280.268 89.2974 280.087 89.5027 279.964C89.7107 279.839 89.9507 279.776 90.2227 279.776C90.3427 279.776 90.464 279.789 90.5867 279.816C90.712 279.843 90.82 279.877 90.9107 279.92L90.6707 280.412C90.5907 280.372 90.4987 280.341 90.3947 280.32C90.2934 280.299 90.196 280.288 90.1027 280.288C89.9134 280.288 89.7347 280.336 89.5667 280.432C89.3987 280.528 89.2614 280.653 89.1547 280.808C89.0507 280.96 88.9987 281.123 88.9987 281.296V284H88.4147ZM93.8941 284.128C93.4675 284.128 93.0821 284.036 92.7381 283.852C92.3968 283.668 92.1261 283.412 91.9261 283.084C91.7261 282.756 91.6261 282.379 91.6261 281.952C91.6261 281.523 91.7261 281.145 91.9261 280.82C92.1261 280.492 92.3968 280.236 92.7381 280.052C93.0795 279.868 93.4648 279.776 93.8941 279.776C94.3208 279.776 94.7048 279.868 95.0461 280.052C95.3901 280.236 95.6621 280.492 95.8621 280.82C96.0621 281.145 96.1621 281.523 96.1621 281.952C96.1621 282.379 96.0621 282.756 95.8621 283.084C95.6621 283.412 95.3901 283.668 95.0461 283.852C94.7048 284.036 94.3208 284.128 93.8941 284.128ZM93.8941 283.608C94.2141 283.608 94.4995 283.537 94.7501 283.396C95.0008 283.255 95.1981 283.06 95.3421 282.812C95.4861 282.561 95.5581 282.275 95.5581 281.952C95.5581 281.629 95.4861 281.344 95.3421 281.096C95.1981 280.845 95.0008 280.649 94.7501 280.508C94.4995 280.367 94.2141 280.296 93.8941 280.296C93.5741 280.296 93.2888 280.367 93.0381 280.508C92.7875 280.649 92.5901 280.845 92.4461 281.096C92.3021 281.344 92.2301 281.629 92.2301 281.952C92.2301 282.272 92.3021 282.557 92.4461 282.808C92.5901 283.059 92.7875 283.255 93.0381 283.396C93.2888 283.537 93.5741 283.608 93.8941 283.608ZM98.5519 284.128C98.2452 284.128 98.0065 284.025 97.8359 283.82C97.6679 283.612 97.5839 283.32 97.5839 282.944V280.344H97.1679V279.904H97.5839V278.372H98.1679V279.904H99.1879V280.344H98.1679V282.912C98.1679 283.139 98.2119 283.312 98.2999 283.432C98.3879 283.552 98.5132 283.612 98.6759 283.612C98.8332 283.612 98.9719 283.568 99.0919 283.48L99.2399 283.944C99.1492 284 99.0425 284.044 98.9199 284.076C98.7972 284.111 98.6745 284.128 98.5519 284.128ZM102.436 284.128C102.007 284.128 101.623 284.033 101.284 283.844C100.948 283.655 100.684 283.397 100.492 283.072C100.3 282.744 100.204 282.376 100.204 281.968C100.204 281.661 100.259 281.376 100.368 281.112C100.48 280.845 100.635 280.612 100.832 280.412C101.03 280.212 101.259 280.056 101.52 279.944C101.782 279.832 102.06 279.776 102.356 279.776C102.762 279.776 103.122 279.865 103.436 280.044C103.754 280.22 104.004 280.464 104.188 280.776C104.375 281.088 104.474 281.448 104.484 281.856C104.484 281.888 104.483 281.915 104.48 281.936C104.48 281.955 104.478 281.979 104.472 282.008H100.784C100.784 282.328 100.856 282.611 101 282.856C101.144 283.101 101.342 283.295 101.592 283.436C101.846 283.575 102.135 283.644 102.46 283.644C102.77 283.644 103.047 283.58 103.292 283.452C103.54 283.321 103.747 283.135 103.912 282.892L104.344 283.124C104.15 283.441 103.884 283.688 103.548 283.864C103.215 284.04 102.844 284.128 102.436 284.128ZM100.816 281.568H103.9C103.866 281.312 103.776 281.087 103.632 280.892C103.488 280.695 103.306 280.54 103.084 280.428C102.866 280.316 102.626 280.26 102.364 280.26C102.095 280.26 101.85 280.316 101.628 280.428C101.407 280.537 101.224 280.691 101.08 280.888C100.939 281.083 100.851 281.309 100.816 281.568ZM105.86 284V279.904H106.444V284H105.86ZM106.108 279.368L105.808 279.148L106.568 277.632L107.028 277.96L106.108 279.368ZM108.165 284V279.904H108.749V280.464C108.861 280.272 109.034 280.109 109.269 279.976C109.503 279.843 109.79 279.776 110.129 279.776C110.446 279.776 110.719 279.841 110.949 279.972C111.178 280.103 111.354 280.293 111.477 280.544C111.599 280.792 111.661 281.092 111.661 281.444V284H111.077V281.556C111.077 281.132 110.978 280.809 110.781 280.588C110.583 280.364 110.305 280.252 109.945 280.252C109.694 280.252 109.479 280.303 109.301 280.404C109.125 280.503 108.989 280.635 108.893 280.8C108.797 280.963 108.749 281.14 108.749 281.332V284H108.165ZM115.053 284.128C114.669 284.128 114.323 284.035 114.013 283.848C113.707 283.659 113.463 283.4 113.281 283.072C113.103 282.744 113.013 282.369 113.013 281.948C113.013 281.532 113.101 281.161 113.277 280.836C113.456 280.508 113.699 280.249 114.005 280.06C114.315 279.871 114.664 279.776 115.053 279.776C115.424 279.776 115.76 279.863 116.061 280.036C116.363 280.209 116.592 280.449 116.749 280.756V279.904H117.333V284H116.749V283.136C116.573 283.445 116.337 283.688 116.041 283.864C115.745 284.04 115.416 284.128 115.053 284.128ZM115.197 283.62C115.504 283.62 115.775 283.549 116.009 283.408C116.247 283.264 116.433 283.067 116.569 282.816C116.705 282.563 116.773 282.275 116.773 281.952C116.773 281.627 116.705 281.339 116.569 281.088C116.436 280.837 116.251 280.641 116.013 280.5C115.776 280.356 115.504 280.284 115.197 280.284C114.891 280.284 114.619 280.356 114.381 280.5C114.144 280.641 113.957 280.837 113.821 281.088C113.685 281.339 113.617 281.627 113.617 281.952C113.617 282.275 113.685 282.563 113.821 282.816C113.957 283.067 114.144 283.264 114.381 283.408C114.619 283.549 114.891 283.62 115.197 283.62Z" fill="black"/>
<path d="M70.3726 251.95C70.426 252.05 70.456 252.14 70.4626 252.22C70.476 252.3 70.4826 252.417 70.4826 252.57V258.12C70.4826 258.58 70.356 258.85 70.1026 258.93C69.976 258.97 69.816 258.99 69.6226 258.99C69.4293 258.99 69.276 258.973 69.1626 258.94C69.0493 258.907 68.9626 258.867 68.9026 258.82C68.8426 258.773 68.796 258.707 68.7626 258.62C68.7293 258.507 68.7126 258.333 68.7126 258.1V254.75C68.546 254.957 68.3026 255.287 67.9826 255.74C67.6626 256.187 67.4593 256.467 67.3726 256.58C67.286 256.693 67.226 256.773 67.1926 256.82C67.1593 256.86 67.076 256.92 66.9426 257C66.816 257.073 66.676 257.11 66.5226 257.11C66.376 257.11 66.2393 257.077 66.1126 257.01C65.9926 256.937 65.906 256.867 65.8526 256.8L65.7726 256.69C65.6393 256.523 65.376 256.17 64.9826 255.63C64.5893 255.083 64.376 254.79 64.3426 254.75V258.12C64.3426 258.273 64.336 258.39 64.3226 258.47C64.316 258.543 64.286 258.627 64.2326 258.72C64.1326 258.9 63.8726 258.99 63.4526 258.99C63.046 258.99 62.7926 258.9 62.6926 258.72C62.6393 258.627 62.606 258.54 62.5926 258.46C62.586 258.38 62.5826 258.26 62.5826 258.1V252.55C62.5826 252.397 62.586 252.283 62.5926 252.21C62.606 252.13 62.6393 252.04 62.6926 251.94C62.7926 251.767 63.0526 251.68 63.4726 251.68C63.6526 251.68 63.806 251.703 63.9326 251.75C64.066 251.79 64.1526 251.833 64.1926 251.88L64.2526 251.94L66.5226 254.92C67.656 253.42 68.4126 252.43 68.7926 251.95C68.906 251.77 69.1726 251.68 69.5926 251.68C70.0193 251.68 70.2793 251.77 70.3726 251.95ZM76.0738 251.94C76.1405 251.833 76.2371 251.76 76.3638 251.72C76.4905 251.68 76.6471 251.66 76.8338 251.66C77.0271 251.66 77.1805 251.677 77.2938 251.71C77.4071 251.743 77.4938 251.783 77.5538 251.83C77.6138 251.877 77.6571 251.947 77.6838 252.04C77.7238 252.153 77.7438 252.327 77.7438 252.56V255.58C77.7438 256.46 77.4705 257.26 76.9238 257.98C76.6571 258.32 76.3138 258.597 75.8938 258.81C75.4738 259.017 75.0071 259.12 74.4938 259.12C73.9871 259.12 73.5238 259.013 73.1038 258.8C72.6905 258.587 72.3538 258.307 72.0938 257.96C71.5538 257.253 71.2838 256.453 71.2838 255.56V252.55C71.2838 252.39 71.2871 252.273 71.2938 252.2C71.3071 252.12 71.3405 252.03 71.3938 251.93C71.4471 251.83 71.5371 251.76 71.6638 251.72C71.7905 251.68 71.9605 251.66 72.1738 251.66C72.3871 251.66 72.5571 251.68 72.6838 251.72C72.8105 251.76 72.8971 251.83 72.9438 251.93C73.0238 252.083 73.0638 252.293 73.0638 252.56V255.56C73.0638 255.967 73.1638 256.353 73.3638 256.72C73.4638 256.907 73.6138 257.057 73.8138 257.17C74.0138 257.283 74.2505 257.34 74.5238 257.34C75.0105 257.34 75.3738 257.16 75.6138 256.8C75.8538 256.44 75.9738 256.023 75.9738 255.55V252.49C75.9738 252.23 76.0071 252.047 76.0738 251.94ZM81.8793 251.67C82.1393 251.67 82.3293 251.693 82.4493 251.74C82.5759 251.78 82.6659 251.85 82.7193 251.95C82.7926 252.103 82.8293 252.31 82.8293 252.57V256.44C82.8293 257.14 82.5759 257.76 82.0693 258.3C81.5626 258.833 80.9159 259.1 80.1293 259.1C79.6893 259.1 79.2993 259.003 78.9593 258.81C78.6526 258.643 78.4393 258.493 78.3193 258.36L78.2393 258.28C78.0059 258.033 77.8893 257.823 77.8893 257.65C77.8893 257.47 78.0059 257.26 78.2393 257.02C78.4726 256.78 78.6793 256.66 78.8593 256.66C79.0393 256.66 79.2393 256.77 79.4593 256.99C79.6793 257.21 79.9159 257.32 80.1693 257.32C80.4293 257.32 80.6426 257.233 80.8093 257.06C80.9759 256.887 81.0593 256.657 81.0593 256.37V252.63C81.0593 252.23 81.1259 251.973 81.2593 251.86C81.4126 251.733 81.6193 251.67 81.8793 251.67ZM85.3975 257.23H88.4775C88.6309 257.23 88.7442 257.237 88.8175 257.25C88.8975 257.257 88.9875 257.287 89.0875 257.34C89.2675 257.433 89.3575 257.693 89.3575 258.12C89.3575 258.587 89.2342 258.86 88.9875 258.94C88.8742 258.98 88.7009 259 88.4675 259H84.5075C84.0409 259 83.7675 258.873 83.6875 258.62C83.6475 258.513 83.6275 258.343 83.6275 258.11V252.55C83.6275 252.21 83.6909 251.98 83.8175 251.86C83.9442 251.733 84.1842 251.67 84.5375 251.67H88.4775C88.6309 251.67 88.7442 251.677 88.8175 251.69C88.8975 251.697 88.9875 251.727 89.0875 251.78C89.2675 251.873 89.3575 252.133 89.3575 252.56C89.3575 253.027 89.2342 253.3 88.9875 253.38C88.8742 253.42 88.7009 253.44 88.4675 253.44H85.3975V254.45H87.3775C87.5309 254.45 87.6442 254.457 87.7175 254.47C87.7975 254.477 87.8875 254.507 87.9875 254.56C88.1675 254.653 88.2575 254.913 88.2575 255.34C88.2575 255.807 88.1309 256.08 87.8775 256.16C87.7642 256.2 87.5909 256.22 87.3575 256.22H85.3975V257.23ZM95.6145 257.76C95.7145 258 95.7645 258.173 95.7645 258.28C95.7645 258.533 95.5578 258.747 95.1445 258.92C94.9312 259.013 94.7578 259.06 94.6245 259.06C94.4978 259.06 94.3912 259.03 94.3045 258.97C94.2245 258.903 94.1645 258.837 94.1245 258.77C94.0578 258.643 93.7978 258.04 93.3445 256.96L93.0345 256.98H91.7745V258.11C91.7745 258.263 91.7678 258.38 91.7545 258.46C91.7478 258.533 91.7178 258.62 91.6645 258.72C91.5712 258.9 91.3112 258.99 90.8845 258.99C90.4178 258.99 90.1445 258.867 90.0645 258.62C90.0245 258.507 90.0045 258.333 90.0045 258.1V252.55C90.0045 252.397 90.0078 252.283 90.0145 252.21C90.0278 252.13 90.0612 252.04 90.1145 251.94C90.2078 251.76 90.4678 251.67 90.8945 251.67H93.0545C93.6412 251.67 94.2112 251.883 94.7645 252.31C95.0312 252.517 95.2512 252.797 95.4245 253.15C95.5978 253.503 95.6845 253.897 95.6845 254.33C95.6845 255.083 95.4345 255.703 94.9345 256.19C95.0812 256.543 95.3078 257.067 95.6145 257.76ZM91.7745 255.21H93.0545C93.2478 255.21 93.4412 255.137 93.6345 254.99C93.8278 254.843 93.9245 254.623 93.9245 254.33C93.9245 254.037 93.8278 253.817 93.6345 253.67C93.4412 253.517 93.2412 253.44 93.0345 253.44H91.7745V255.21ZM99.7324 251.66L101.582 251.67C102.549 251.67 103.399 252.02 104.132 252.72C104.866 253.413 105.232 254.27 105.232 255.29C105.232 256.303 104.872 257.173 104.152 257.9C103.439 258.627 102.572 258.99 101.552 258.99H99.7224C99.3157 258.99 99.0624 258.907 98.9624 258.74C98.8824 258.6 98.8424 258.387 98.8424 258.1V252.54C98.8424 252.38 98.8457 252.263 98.8524 252.19C98.8657 252.117 98.899 252.03 98.9524 251.93C99.0457 251.75 99.3057 251.66 99.7324 251.66ZM101.582 257.22C102.062 257.22 102.496 257.043 102.882 256.69C103.269 256.33 103.462 255.88 103.462 255.34C103.462 254.8 103.272 254.35 102.892 253.99C102.519 253.623 102.079 253.44 101.572 253.44H100.612V257.22H101.582ZM107.653 257.23H110.733C110.887 257.23 111 257.237 111.073 257.25C111.153 257.257 111.243 257.287 111.343 257.34C111.523 257.433 111.613 257.693 111.613 258.12C111.613 258.587 111.49 258.86 111.243 258.94C111.13 258.98 110.957 259 110.723 259H106.763C106.297 259 106.023 258.873 105.943 258.62C105.903 258.513 105.883 258.343 105.883 258.11V252.55C105.883 252.21 105.947 251.98 106.073 251.86C106.2 251.733 106.44 251.67 106.793 251.67H110.733C110.887 251.67 111 251.677 111.073 251.69C111.153 251.697 111.243 251.727 111.343 251.78C111.523 251.873 111.613 252.133 111.613 252.56C111.613 253.027 111.49 253.3 111.243 253.38C111.13 253.42 110.957 253.44 110.723 253.44H107.653V254.45H109.633C109.787 254.45 109.9 254.457 109.973 254.47C110.053 254.477 110.143 254.507 110.243 254.56C110.423 254.653 110.513 254.913 110.513 255.34C110.513 255.807 110.387 256.08 110.133 256.16C110.02 256.2 109.847 256.22 109.613 256.22H107.653V257.23ZM115.95 251.65L117.47 251.66H118.41C118.57 251.66 118.686 251.667 118.76 251.68C118.833 251.687 118.92 251.717 119.02 251.77C119.2 251.863 119.29 252.13 119.29 252.57C119.29 252.97 119.206 253.213 119.04 253.3C118.946 253.353 118.863 253.387 118.79 253.4C118.723 253.407 118.616 253.41 118.47 253.41H116.72C116.706 253.49 116.673 253.743 116.62 254.17C116.693 254.157 116.81 254.15 116.97 254.15C117.603 254.15 118.173 254.39 118.68 254.87C119.186 255.343 119.44 255.927 119.44 256.62C119.44 257.307 119.2 257.9 118.72 258.4C118.24 258.893 117.643 259.14 116.93 259.14C116.31 259.14 115.75 258.983 115.25 258.67C115.136 258.597 115.053 258.533 115 258.48L114.92 258.41C114.666 258.19 114.54 257.99 114.54 257.81C114.54 257.63 114.663 257.413 114.91 257.16C115.11 256.94 115.303 256.83 115.49 256.83C115.676 256.83 115.9 256.937 116.16 257.15C116.28 257.29 116.486 257.36 116.78 257.36C117.08 257.36 117.3 257.297 117.44 257.17C117.586 257.043 117.66 256.87 117.66 256.65C117.66 256.423 117.58 256.247 117.42 256.12C117.266 255.987 117.09 255.92 116.89 255.92C116.69 255.92 116.53 255.98 116.41 256.1C116.23 256.253 116.046 256.33 115.86 256.33C115.68 256.33 115.47 256.267 115.23 256.14C114.996 256.013 114.843 255.913 114.77 255.84C114.696 255.76 114.66 255.677 114.66 255.59C114.66 255.503 114.726 254.967 114.86 253.98C114.993 252.993 115.063 252.48 115.07 252.44C115.076 252.4 115.1 252.33 115.14 252.23C115.18 252.13 115.226 252.04 115.28 251.96C115.34 251.88 115.426 251.81 115.54 251.75C115.66 251.683 115.796 251.65 115.95 251.65ZM121.252 251.65L122.772 251.66H123.712C123.872 251.66 123.989 251.667 124.062 251.68C124.136 251.687 124.222 251.717 124.322 251.77C124.502 251.863 124.592 252.13 124.592 252.57C124.592 252.97 124.509 253.213 124.342 253.3C124.249 253.353 124.166 253.387 124.092 253.4C124.026 253.407 123.919 253.41 123.772 253.41H122.022C122.009 253.49 121.976 253.743 121.922 254.17C121.996 254.157 122.112 254.15 122.272 254.15C122.906 254.15 123.476 254.39 123.982 254.87C124.489 255.343 124.742 255.927 124.742 256.62C124.742 257.307 124.502 257.9 124.022 258.4C123.542 258.893 122.946 259.14 122.232 259.14C121.612 259.14 121.052 258.983 120.552 258.67C120.439 258.597 120.356 258.533 120.302 258.48L120.222 258.41C119.969 258.19 119.842 257.99 119.842 257.81C119.842 257.63 119.966 257.413 120.212 257.16C120.412 256.94 120.606 256.83 120.792 256.83C120.979 256.83 121.202 256.937 121.462 257.15C121.582 257.29 121.789 257.36 122.082 257.36C122.382 257.36 122.602 257.297 122.742 257.17C122.889 257.043 122.962 256.87 122.962 256.65C122.962 256.423 122.882 256.247 122.722 256.12C122.569 255.987 122.392 255.92 122.192 255.92C121.992 255.92 121.832 255.98 121.712 256.1C121.532 256.253 121.349 256.33 121.162 256.33C120.982 256.33 120.772 256.267 120.532 256.14C120.299 256.013 120.146 255.913 120.072 255.84C119.999 255.76 119.962 255.677 119.962 255.59C119.962 255.503 120.029 254.967 120.162 253.98C120.296 252.993 120.366 252.48 120.372 252.44C120.379 252.4 120.402 252.33 120.442 252.23C120.482 252.13 120.529 252.04 120.582 251.96C120.642 251.88 120.729 251.81 120.842 251.75C120.962 251.683 121.099 251.65 121.252 251.65ZM128.535 255.32C129.555 256.3 130.278 257.037 130.705 257.53C130.925 257.777 131.035 257.987 131.035 258.16C131.035 258.327 130.902 258.527 130.635 258.76C130.368 258.987 130.148 259.1 129.975 259.1C129.808 259.1 129.605 258.96 129.365 258.68L127.165 256.17V258.12C127.165 258.28 127.158 258.397 127.145 258.47C127.138 258.543 127.108 258.63 127.055 258.73C126.962 258.91 126.702 259 126.275 259C125.808 259 125.535 258.873 125.455 258.62C125.415 258.513 125.395 258.343 125.395 258.11V252.55C125.395 252.397 125.398 252.283 125.405 252.21C125.418 252.13 125.452 252.04 125.505 251.94C125.598 251.76 125.858 251.67 126.285 251.67C126.752 251.67 127.028 251.793 127.115 252.04C127.148 252.153 127.165 252.327 127.165 252.56V254.47C128.072 253.45 128.805 252.613 129.365 251.96C129.598 251.687 129.802 251.55 129.975 251.55C130.148 251.55 130.368 251.667 130.635 251.9C130.902 252.127 131.035 252.327 131.035 252.5C131.035 252.667 130.935 252.867 130.735 253.1C130.348 253.547 129.748 254.16 128.935 254.94L128.535 255.32ZM134.899 254.58H136.659C137.019 254.593 137.239 254.687 137.319 254.86C137.385 254.987 137.419 255.173 137.419 255.42V257.62C137.419 257.833 137.325 258.037 137.139 258.23C136.579 258.81 135.739 259.1 134.619 259.1C133.625 259.1 132.762 258.727 132.029 257.98C131.295 257.227 130.929 256.32 130.929 255.26C130.929 254.2 131.302 253.317 132.049 252.61C132.795 251.897 133.675 251.54 134.689 251.54C135.475 251.54 136.219 251.8 136.919 252.32C137.099 252.453 137.189 252.603 137.189 252.77C137.189 252.93 137.112 253.117 136.959 253.33C136.699 253.683 136.462 253.86 136.249 253.86C136.122 253.86 135.919 253.77 135.639 253.59C135.359 253.403 135.025 253.31 134.639 253.31C134.132 253.31 133.682 253.49 133.289 253.85C132.895 254.203 132.699 254.67 132.699 255.25C132.699 255.823 132.899 256.313 133.299 256.72C133.699 257.12 134.152 257.32 134.659 257.32C135.025 257.32 135.355 257.26 135.649 257.14V256.05H134.859C134.652 256.05 134.505 256.023 134.419 255.97C134.332 255.917 134.275 255.84 134.249 255.74C134.222 255.633 134.209 255.493 134.209 255.32C134.209 255.14 134.222 254.997 134.249 254.89C134.282 254.783 134.339 254.71 134.419 254.67C134.539 254.61 134.699 254.58 134.899 254.58Z" fill="#7C6BAF"/>
<g clip-path="url(#clip0_715_3)">
<path d="M132.997 58.2932C133.978 55.1672 133.799 52.2257 131.036 50.2067C130.356 49.712 129.786 49.0819 129.362 48.3562C128.937 47.6304 128.667 46.8246 128.569 45.9895L116.829 56.4588L104.815 45.7944C104.471 47.5591 103.495 49.1375 102.069 50.2331C99.2698 52.1993 99.7284 55.1936 100.709 58.3196C101.689 61.4456 99.0273 61.7566 98.3262 65.5205C99.7339 65.5311 101.123 65.8467 102.397 66.4455C103.671 67.0443 104.8 67.9121 105.706 68.9892C107.288 70.9186 111.864 71.8622 116.856 71.5617C121.843 71.8622 126.424 70.9186 128.005 68.9892C128.911 67.9116 130.04 67.0434 131.314 66.4445C132.589 65.8457 133.978 65.5304 135.385 65.5205C134.679 61.7566 132.017 61.414 132.997 58.2932Z" fill="#E27B38"/>
<path d="M107.672 52.2732C107.672 52.2732 105.991 50.9658 104.762 52.5156C102.896 54.872 106.165 59.142 108.98 56.9437L107.672 52.2732Z" fill="#EEBDA7"/>
<path d="M105.976 53.8547C105.976 53.8547 106.914 53.5595 107.931 55.5416" stroke="black" stroke-width="0.52" stroke-linecap="round" stroke-linejoin="round"/>
<path d="M125.702 52.2732C125.702 52.2732 127.384 50.9658 128.612 52.5156C130.478 54.872 127.21 59.142 124.368 56.9437L125.702 52.2732Z" fill="#EEBDA7"/>
<path d="M127.404 53.8547C127.404 53.8547 126.461 53.5595 125.443 55.5416" stroke="black" stroke-width="0.52" stroke-linecap="round" stroke-linejoin="round"/>
<path d="M116.745 58.2985C122.685 58.2985 127.499 53.6042 127.499 47.8135C127.499 42.0227 122.685 37.3284 116.745 37.3284C110.806 37.3284 105.991 42.0227 105.991 47.8135C105.991 53.6042 110.806 58.2985 116.745 58.2985Z" fill="#E27B38"/>
<path d="M113.973 61.7831L113.245 72.8902H120.425L119.376 61.6619L113.973 61.7831Z" fill="#EEBDA7"/>
<path d="M113.894 62.5317C114.131 62.6687 119.861 66.8701 119.861 66.8701L119.376 61.6619L113.894 62.5317Z" fill="black"/>
<path d="M107.657 47.0332C107.657 47.0332 106.523 63.2221 116.376 63.2221C127.03 63.2221 125.912 47.0332 125.912 47.0332C125.912 47.0332 125.854 39.7427 116.703 39.7427C108.316 39.7427 107.657 47.0332 107.657 47.0332Z" fill="#EEBDA7"/>
<path d="M113.509 52.7002C113.51 52.8547 113.465 53.0061 113.38 53.1351C113.295 53.2641 113.173 53.3649 113.031 53.4248C112.888 53.4846 112.731 53.5008 112.579 53.4713C112.428 53.4418 112.288 53.3679 112.179 53.259C112.069 53.1501 111.994 53.0111 111.964 52.8596C111.933 52.7082 111.948 52.551 112.007 52.4081C112.066 52.2653 112.166 52.1431 112.294 52.0572C112.423 51.9712 112.574 51.9253 112.728 51.9253C112.934 51.9253 113.132 52.0068 113.278 52.1519C113.424 52.2971 113.507 52.4942 113.509 52.7002Z" fill="black"/>
<path d="M121.278 52.7002C121.279 52.855 121.234 53.0065 121.149 53.1356C121.064 53.2648 120.942 53.3656 120.799 53.4253C120.656 53.485 120.499 53.5009 120.347 53.4709C120.195 53.441 120.056 53.3666 119.946 53.2572C119.837 53.1477 119.762 53.0082 119.733 52.8564C119.703 52.7046 119.718 52.5473 119.778 52.4045C119.838 52.2617 119.939 52.1399 120.068 52.0546C120.197 51.9693 120.348 51.9243 120.503 51.9253C120.709 51.9253 120.906 52.007 121.051 52.1523C121.196 52.2976 121.278 52.4947 121.278 52.7002Z" fill="black"/>
<path d="M113.841 57.4446H118.754C118.754 57.4446 118.422 58.6939 116.324 58.6939C114.226 58.6939 113.841 57.4446 113.841 57.4446Z" fill="white"/>
<path d="M115.859 54.656V55.9159L116.782 55.9317" stroke="black" stroke-width="0.52" stroke-linecap="round" stroke-linejoin="round"/>
<path d="M120.435 47.7924C120.435 47.7924 118.442 47.4023 118.326 48.4776C118.326 48.4776 118.279 49.2051 120.024 49.5003C121.769 49.7955 122.992 49.8693 123.187 49.1999C123.382 48.5304 121.379 47.8767 120.435 47.7924Z" fill="#D46919"/>
<path d="M111.411 47.9243C111.411 47.9243 109.455 48.035 109.597 49.0999C109.597 49.0999 109.713 49.8115 111.411 49.6745C113.108 49.5374 114.321 49.3213 114.331 48.5463C114.336 47.6449 112.312 47.782 111.411 47.9243Z" fill="#D46919"/>
<path d="M104.984 48.5779C104.984 48.5779 120.694 46.1266 121.036 39.3579C121.036 39.3579 117.615 33.5118 109.882 37.2493C103.181 40.486 104.984 48.5779 104.984 48.5779Z" fill="#E27B38"/>
<path d="M118.622 39.3579C118.622 39.3579 119.381 44.3975 126.756 49.7481C126.756 49.7481 131.163 44.4765 127.473 40.4491C123.783 36.4216 118.622 39.3579 118.622 39.3579Z" fill="#E27B38"/>
<path d="M92.5273 100.423L98.9218 76.7911C99.0369 76.2342 99.2635 75.7064 99.5879 75.2393C99.9122 74.7723 100.328 74.3756 100.809 74.0733C101.291 73.7709 101.829 73.5691 102.39 73.4799C102.952 73.3907 103.526 73.4161 104.077 73.5544C106.297 74.1131 109.059 76.343 108.548 78.5729L100.509 103.439L92.5273 100.423Z" fill="#EEBDA7"/>
<path d="M137.209 109.802C138.079 109.435 138.807 108.796 139.283 107.98C139.758 107.165 139.955 106.216 139.845 105.279L136.629 77.3974C136.599 76.8279 136.453 76.2705 136.201 75.7589C135.948 75.2474 135.595 74.7923 135.162 74.4212C134.729 74.0502 134.225 73.7708 133.68 73.6001C133.136 73.4294 132.563 73.3708 131.996 73.428C130.9 73.5453 129.895 74.0864 129.193 74.9355C128.492 75.7847 128.151 76.8745 128.242 77.972L132.291 106.206C132.596 109.106 134.536 110.898 137.23 109.775L137.209 109.802Z" fill="#EEBDA7"/>
<path d="M140.784 136.771L144.421 136.307L140.114 105.98C139.698 102.896 137.015 99.1266 134.105 100.244C131.68 101.161 131.896 104.314 132.37 106.86C133.873 114.825 140.784 136.771 140.784 136.771Z" fill="#EEBDA7"/>
<path d="M140.593 135.875C140.593 135.875 139.903 138.721 143.055 141.146L144.352 144.752C144.449 145.024 144.642 145.251 144.894 145.392C145.146 145.532 145.44 145.576 145.723 145.516C146.026 145.454 146.294 145.275 146.467 145.018C146.641 144.76 146.706 144.445 146.65 144.14L146.25 141.874L146.777 142.48C147.616 143.443 148.104 144.662 148.163 145.938L148.327 149.57C148.337 149.773 148.401 149.97 148.512 150.141C148.623 150.311 148.778 150.449 148.959 150.54C149.126 150.621 149.309 150.661 149.494 150.655C149.679 150.649 149.86 150.598 150.021 150.507C150.182 150.416 150.318 150.286 150.418 150.13C150.518 149.975 150.578 149.797 150.594 149.612L150.978 144.826C151.052 143.906 150.928 142.981 150.614 142.114C150.3 141.247 149.804 140.456 149.16 139.797L142.749 132.944L140.593 135.875Z" fill="#EEBDA7"/>
<path d="M116.586 69.7537L101.789 73.6493L107.609 106.059H126.861L132.095 73.4385L116.586 69.7537Z" fill="#EEBDA7"/>
<path d="M107.609 106.059L102.738 87.2077L110.003 80.4285L116.94 84.8197L124.146 80.4285L131.5 87.0548L126.861 106.059H107.609Z" fill="white"/>
<path d="M110.003 80.4284V71.6091" stroke="black" stroke-linecap="round" stroke-linejoin="round"/>
<path d="M124.046 80.4284V71.6091" stroke="black" stroke-linecap="round" stroke-linejoin="round"/>
<path d="M104.657 231.094L112.074 230.145L114.557 172.485L102.738 174.351L104.657 231.094Z" fill="#EEBDA7"/>
<path d="M112.528 227.763L101.827 227.689C100.317 229.504 98.1554 230.654 95.8067 230.894C91.832 231.316 88.6216 233.403 88.3105 236.224H114.199C113.921 233.355 113.362 230.521 112.528 227.763Z" fill="black"/>
<path d="M90.3919 230.456C90.3919 230.456 96.2645 230.53 96.8022 237.715H86.7861C86.7861 237.715 87.1815 231.047 90.3919 230.456Z" fill="white"/>
<path d="M88.3046 238.005H114.193V236.229H88.3046V238.005Z" fill="white"/>
<path d="M98.8271 229.871C98.8271 229.871 99.6073 229.866 101.189 231.047" stroke="white" stroke-width="1.07" stroke-linecap="round" stroke-linejoin="round"/>
<path d="M100.487 229.001C100.487 229.001 101.273 229.001 102.828 230.166" stroke="white" stroke-width="1.07" stroke-linecap="round" stroke-linejoin="round"/>
<path d="M97.2451 230.667C98.1387 230.746 98.9658 231.172 99.5488 231.853" stroke="white" stroke-width="1.07" stroke-linecap="round" stroke-linejoin="round"/>
<path d="M128.111 231.094L120.693 230.145L118.216 172.485L130.029 174.351L128.111 231.094Z" fill="#EEBDA7"/>
<path d="M120.24 227.763L130.942 227.689C132.455 229.503 134.617 230.653 136.967 230.894C140.937 231.316 144.152 233.403 144.463 236.224H118.585C118.859 233.356 119.413 230.522 120.24 227.763Z" fill="black"/>
<path d="M142.381 230.456C142.381 230.456 136.509 230.52 135.981 237.715H145.997C145.997 237.715 145.586 231.047 142.381 230.456Z" fill="white"/>
<path d="M144.463 236.223H118.574V238H144.463V236.223Z" fill="white"/>
<path d="M133.941 229.871C133.941 229.871 133.156 229.871 131.601 231.042" stroke="white" stroke-width="1.07" stroke-linecap="round" stroke-linejoin="round"/>
<path d="M132.291 229.001C132.291 229.001 131.505 229.001 129.95 230.166" stroke="white" stroke-width="1.07" stroke-linecap="round" stroke-linejoin="round"/>
<path d="M135.527 230.667C134.634 230.745 133.806 231.171 133.224 231.853" stroke="white" stroke-width="1.07" stroke-linecap="round" stroke-linejoin="round"/>
<path d="M107.61 106.059C107.61 106.059 94.5098 127.092 94.5098 197.161H138.317C138.317 197.161 142.534 144.662 126.862 106.059H107.61Z" fill="#F3BD37"/>
<path d="M65.5048 90.7659L64.1025 94.1502L92.5691 105.468C95.4527 106.638 100.034 106.169 100.529 103.096C100.935 100.545 98.0885 99.1634 95.6477 98.3147C88.0092 95.6526 65.5048 90.7659 65.5048 90.7659Z" fill="#EEBDA7"/>
<path d="M66.3961 91.0453C66.3961 91.0453 64.2875 89.0316 60.5973 90.5656L56.8229 89.9014C56.5394 89.8527 56.2478 89.9073 56.0012 90.0553C55.7545 90.2033 55.5691 90.4349 55.4786 90.7079C55.3823 91.003 55.405 91.3241 55.5419 91.6027C55.6787 91.8813 55.919 92.0956 56.2114 92.1998L58.3833 92.9799L57.5925 93.1381C56.3382 93.3814 55.0385 93.1957 53.9024 92.6109L50.6657 90.9504C50.4858 90.857 50.2839 90.8141 50.0816 90.8262C49.8793 90.8382 49.684 90.9048 49.5165 91.0189H49.527C49.3737 91.1228 49.2482 91.2626 49.1614 91.4262C49.0747 91.5898 49.0293 91.7721 49.0293 91.9573C49.0293 92.1424 49.0747 92.3248 49.1614 92.4883C49.2482 92.6519 49.3737 92.7917 49.527 92.8956L53.486 95.6104C54.2481 96.1311 55.1126 96.4832 56.0217 96.6432C56.9307 96.8032 57.8634 96.7674 58.7576 96.5382L67.8721 94.3611L66.3961 91.0453Z" fill="#EEBDA7"/>
</g>
<defs>
<filter id="filter0_d_715_3" x="0" y="0" width="200" height="344" filterUnits="userSpaceOnUse" color-interpolation-filters="sRGB">
<feFlood flood-opacity="0" result="BackgroundImageFix"/>
<feColorMatrix in="SourceAlpha" type="matrix" values="0 0 0 0 0 0 0 0 0 0 0 0 0 0 0 0 0 0 127 0" result="hardAlpha"/>
<feMorphology radius="8" operator="dilate" in="SourceAlpha" result="effect1_dropShadow_715_3"/>
<feOffset dy="12"/>
<feGaussianBlur stdDeviation="12"/>
<feComposite in2="hardAlpha" operator="out"/>
<feColorMatrix type="matrix" values="0 0 0 0 0.486275 0 0 0 0 0.419608 0 0 0 0 0.686275 0 0 0 0.22 0"/>
<feBlend mode="normal" in2="BackgroundImageFix" result="effect1_dropShadow_715_3"/>
<feBlend mode="normal" in="SourceGraphic" in2="effect1_dropShadow_715_3" result="shape"/>
</filter>
<clipPath id="clip0_715_3">
<rect width="102" height="202" fill="white" transform="translate(49 36)"/>
</clipPath>
</defs>
</svg>
