<svg width="200" height="344" viewBox="0 0 200 344" fill="none" xmlns="http://www.w3.org/2000/svg">
<g filter="url(#filter0_d_715_2)">
<rect x="32" y="20" width="136" height="280" rx="29" fill="white"/>
</g>
<path d="M66.1346 275V268.4H66.7426L70.2866 273.964V268.4H70.8946V275H70.2866L66.7426 269.444V275H66.1346ZM74.7527 275.128C74.3233 275.128 73.9393 275.033 73.6007 274.844C73.2647 274.655 73.0007 274.397 72.8087 274.072C72.6167 273.744 72.5207 273.376 72.5207 272.968C72.5207 272.661 72.5753 272.376 72.6847 272.112C72.7967 271.845 72.9513 271.612 73.1487 271.412C73.346 271.212 73.5753 271.056 73.8367 270.944C74.098 270.832 74.3767 270.776 74.6727 270.776C75.078 270.776 75.438 270.865 75.7527 271.044C76.07 271.22 76.3207 271.464 76.5047 271.776C76.6913 272.088 76.79 272.448 76.8007 272.856C76.8007 272.888 76.7993 272.915 76.7967 272.936C76.7967 272.955 76.794 272.979 76.7887 273.008H73.1007C73.1007 273.328 73.1727 273.611 73.3167 273.856C73.4607 274.101 73.658 274.295 73.9087 274.436C74.162 274.575 74.4513 274.644 74.7767 274.644C75.086 274.644 75.3633 274.58 75.6087 274.452C75.8567 274.321 76.0633 274.135 76.2287 273.892L76.6607 274.124C76.466 274.441 76.2007 274.688 75.8647 274.864C75.5313 275.04 75.1607 275.128 74.7527 275.128ZM73.1327 272.568H76.2167C76.182 272.312 76.0927 272.087 75.9487 271.892C75.8047 271.695 75.622 271.54 75.4007 271.428C75.182 271.316 74.942 271.26 74.6807 271.26C74.4113 271.26 74.166 271.316 73.9447 271.428C73.7233 271.537 73.5407 271.691 73.3967 271.888C73.2553 272.083 73.1673 272.309 73.1327 272.568ZM80.0804 275.128C79.7737 275.128 79.4857 275.075 79.2164 274.968C78.9471 274.859 78.7111 274.705 78.5084 274.508C78.3057 274.311 78.1471 274.08 78.0324 273.816C77.9177 273.552 77.8604 273.264 77.8604 272.952C77.8604 272.643 77.9164 272.356 78.0284 272.092C78.1404 271.828 78.2964 271.597 78.4964 271.4C78.6991 271.203 78.9351 271.049 79.2044 270.94C79.4737 270.831 79.7657 270.776 80.0804 270.776C80.3497 270.776 80.6057 270.816 80.8484 270.896C81.0911 270.976 81.3004 271.087 81.4764 271.228L81.2364 271.62C80.9377 271.388 80.5751 271.272 80.1484 271.272C79.8124 271.272 79.5164 271.347 79.2604 271.496C79.0071 271.643 78.8097 271.844 78.6684 272.1C78.5271 272.353 78.4564 272.637 78.4564 272.952C78.4564 273.269 78.5284 273.556 78.6724 273.812C78.8164 274.065 79.0164 274.265 79.2724 274.412C79.5284 274.559 79.8217 274.632 80.1524 274.632C80.3604 274.632 80.5564 274.603 80.7404 274.544C80.9271 274.483 81.0911 274.396 81.2324 274.284L81.4764 274.676C81.2977 274.815 81.0884 274.924 80.8484 275.004C80.6084 275.087 80.3524 275.128 80.0804 275.128ZM84.6667 275.128C84.2374 275.128 83.8534 275.033 83.5147 274.844C83.1787 274.655 82.9147 274.397 82.7227 274.072C82.5307 273.744 82.4347 273.376 82.4347 272.968C82.4347 272.661 82.4894 272.376 82.5987 272.112C82.7107 271.845 82.8654 271.612 83.0627 271.412C83.2601 271.212 83.4894 271.056 83.7507 270.944C84.0121 270.832 84.2907 270.776 84.5867 270.776C84.9921 270.776 85.3521 270.865 85.6667 271.044C85.9841 271.22 86.2347 271.464 86.4187 271.776C86.6054 272.088 86.7041 272.448 86.7147 272.856C86.7147 272.888 86.7134 272.915 86.7107 272.936C86.7107 272.955 86.7081 272.979 86.7027 273.008H83.0147C83.0147 273.328 83.0867 273.611 83.2307 273.856C83.3747 274.101 83.5721 274.295 83.8227 274.436C84.0761 274.575 84.3654 274.644 84.6907 274.644C85.0001 274.644 85.2774 274.58 85.5227 274.452C85.7707 274.321 85.9774 274.135 86.1427 273.892L86.5747 274.124C86.3801 274.441 86.1147 274.688 85.7787 274.864C85.4454 275.04 85.0747 275.128 84.6667 275.128ZM83.0467 272.568H86.1307C86.0961 272.312 86.0067 272.087 85.8627 271.892C85.7187 271.695 85.5361 271.54 85.3147 271.428C85.0961 271.316 84.8561 271.26 84.5947 271.26C84.3254 271.26 84.0801 271.316 83.8587 271.428C83.6374 271.537 83.4547 271.691 83.3107 271.888C83.1694 272.083 83.0814 272.309 83.0467 272.568ZM89.1232 275.128C88.7846 275.128 88.4859 275.047 88.2272 274.884C87.9686 274.719 87.7672 274.485 87.6232 274.184L87.9352 273.848C88.0632 274.109 88.2299 274.313 88.4352 274.46C88.6406 274.604 88.8686 274.676 89.1192 274.676C89.2872 274.676 89.4406 274.641 89.5792 274.572C89.7206 274.503 89.8326 274.404 89.9152 274.276C90.0006 274.145 90.0432 273.991 90.0432 273.812C90.0432 273.649 90.0032 273.521 89.9232 273.428C89.8459 273.335 89.7312 273.255 89.5792 273.188C89.4299 273.119 89.2432 273.041 89.0192 272.956C88.8459 272.887 88.6779 272.808 88.5152 272.72C88.3526 272.632 88.2179 272.521 88.1112 272.388C88.0072 272.252 87.9552 272.08 87.9552 271.872C87.9552 271.661 88.0112 271.475 88.1232 271.312C88.2352 271.147 88.3899 271.017 88.5872 270.924C88.7846 270.828 89.0086 270.78 89.2592 270.78C89.4886 270.78 89.7032 270.829 89.9032 270.928C90.1059 271.027 90.2872 271.167 90.4472 271.348L90.1792 271.688C89.9339 271.365 89.6286 271.204 89.2632 271.204C89.0392 271.204 88.8566 271.263 88.7152 271.38C88.5766 271.497 88.5072 271.651 88.5072 271.84C88.5072 271.976 88.5512 272.089 88.6392 272.18C88.7272 272.271 88.8419 272.348 88.9832 272.412C89.1272 272.476 89.2819 272.54 89.4472 272.604C89.6872 272.695 89.8952 272.785 90.0712 272.876C90.2499 272.967 90.3886 273.083 90.4872 273.224C90.5859 273.363 90.6352 273.552 90.6352 273.792C90.6352 274.067 90.5712 274.304 90.4432 274.504C90.3152 274.704 90.1366 274.859 89.9072 274.968C89.6806 275.075 89.4192 275.128 89.1232 275.128ZM92.0162 275V270.904H92.6002V275H92.0162ZM92.3122 270.084C92.2402 270.084 92.1748 270.067 92.1162 270.032C92.0602 269.997 92.0148 269.951 91.9802 269.892C91.9455 269.833 91.9282 269.769 91.9282 269.7C91.9282 269.631 91.9455 269.568 91.9802 269.512C92.0148 269.453 92.0602 269.407 92.1162 269.372C92.1748 269.337 92.2402 269.32 92.3122 269.32C92.3815 269.32 92.4442 269.337 92.5002 269.372C92.5562 269.407 92.6015 269.452 92.6362 269.508C92.6735 269.564 92.6922 269.628 92.6922 269.7C92.6922 269.769 92.6735 269.833 92.6362 269.892C92.6015 269.951 92.5562 269.997 92.5002 270.032C92.4442 270.067 92.3815 270.084 92.3122 270.084ZM95.3448 275.128C95.0382 275.128 94.7995 275.025 94.6288 274.82C94.4608 274.612 94.3768 274.32 94.3768 273.944V271.344H93.9608V270.904H94.3768V269.372H94.9608V270.904H95.9808V271.344H94.9608V273.912C94.9608 274.139 95.0048 274.312 95.0928 274.432C95.1808 274.552 95.3062 274.612 95.4688 274.612C95.6262 274.612 95.7648 274.568 95.8848 274.48L96.0328 274.944C95.9422 275 95.8355 275.044 95.7128 275.076C95.5902 275.111 95.4675 275.128 95.3448 275.128ZM99.0416 275.128C98.6576 275.128 98.3109 275.035 98.0016 274.848C97.6949 274.659 97.4509 274.4 97.2696 274.072C97.0909 273.744 97.0016 273.369 97.0016 272.948C97.0016 272.532 97.0896 272.161 97.2656 271.836C97.4443 271.508 97.6869 271.249 97.9936 271.06C98.3029 270.871 98.6523 270.776 99.0416 270.776C99.4123 270.776 99.7483 270.863 100.05 271.036C100.351 271.209 100.58 271.449 100.738 271.756V270.904H101.322V275H100.738V274.136C100.562 274.445 100.326 274.688 100.03 274.864C99.7336 275.04 99.4043 275.128 99.0416 275.128ZM99.1856 274.62C99.4923 274.62 99.7629 274.549 99.9976 274.408C100.235 274.264 100.422 274.067 100.558 273.816C100.694 273.563 100.762 273.275 100.762 272.952C100.762 272.627 100.694 272.339 100.558 272.088C100.424 271.837 100.239 271.641 100.002 271.5C99.7643 271.356 99.4923 271.284 99.1856 271.284C98.8789 271.284 98.6069 271.356 98.3696 271.5C98.1323 271.641 97.9456 271.837 97.8096 272.088C97.6736 272.339 97.6056 272.627 97.6056 272.952C97.6056 273.275 97.6736 273.563 97.8096 273.816C97.9456 274.067 98.1323 274.264 98.3696 274.408C98.6069 274.549 98.8789 274.62 99.1856 274.62ZM104.702 275L108.014 268.936H104.762V268.4H108.91V268.604L105.422 275H104.702ZM112.669 275.128C112.13 275.128 111.658 274.985 111.253 274.7C110.85 274.412 110.537 274.011 110.313 273.496C110.089 272.981 109.977 272.384 109.977 271.704C109.977 271.021 110.089 270.424 110.313 269.912C110.537 269.397 110.85 268.997 111.253 268.712C111.658 268.424 112.13 268.28 112.669 268.28C113.208 268.28 113.678 268.424 114.081 268.712C114.484 268.997 114.797 269.397 115.021 269.912C115.248 270.424 115.361 271.021 115.361 271.704C115.361 272.384 115.248 272.981 115.021 273.496C114.797 274.011 114.484 274.412 114.081 274.7C113.678 274.985 113.208 275.128 112.669 275.128ZM112.669 274.58C113.08 274.58 113.438 274.461 113.745 274.224C114.052 273.987 114.29 273.652 114.461 273.22C114.632 272.788 114.717 272.283 114.717 271.704C114.717 271.123 114.632 270.617 114.461 270.188C114.29 269.756 114.052 269.421 113.745 269.184C113.438 268.947 113.08 268.828 112.669 268.828C112.258 268.828 111.898 268.947 111.589 269.184C111.282 269.421 111.044 269.756 110.873 270.188C110.705 270.617 110.621 271.123 110.621 271.704C110.621 272.283 110.705 272.788 110.873 273.22C111.044 273.652 111.282 273.987 111.589 274.224C111.898 274.461 112.258 274.58 112.669 274.58ZM118.711 277.2C118.194 277.2 117.756 277.099 117.399 276.896C117.042 276.693 116.776 276.397 116.603 276.008L117.095 275.78C117.22 276.063 117.428 276.287 117.719 276.452C118.01 276.62 118.34 276.704 118.711 276.704C119.023 276.704 119.302 276.641 119.547 276.516C119.795 276.393 119.99 276.215 120.131 275.98C120.275 275.745 120.347 275.464 120.347 275.136V274.136C120.176 274.445 119.942 274.688 119.643 274.864C119.347 275.04 119.016 275.128 118.651 275.128C118.27 275.128 117.924 275.035 117.615 274.848C117.308 274.661 117.064 274.404 116.883 274.076C116.704 273.748 116.615 273.373 116.615 272.952C116.615 272.533 116.704 272.161 116.883 271.836C117.062 271.508 117.304 271.249 117.611 271.06C117.92 270.871 118.271 270.776 118.663 270.776C119.026 270.776 119.355 270.863 119.651 271.036C119.95 271.209 120.182 271.449 120.347 271.756V270.904H120.931V275.112C120.931 275.565 120.842 275.947 120.663 276.256C120.484 276.568 120.228 276.803 119.895 276.96C119.564 277.12 119.17 277.2 118.711 277.2ZM118.791 274.62C119.1 274.62 119.374 274.549 119.611 274.408C119.848 274.264 120.035 274.067 120.171 273.816C120.307 273.563 120.375 273.276 120.375 272.956C120.375 272.631 120.307 272.343 120.171 272.092C120.035 271.839 119.848 271.641 119.611 271.5C119.374 271.356 119.102 271.284 118.795 271.284C118.488 271.284 118.216 271.356 117.979 271.5C117.742 271.641 117.555 271.839 117.419 272.092C117.283 272.343 117.215 272.631 117.215 272.956C117.215 273.276 117.282 273.563 117.415 273.816C117.551 274.067 117.738 274.264 117.975 274.408C118.215 274.549 118.487 274.62 118.791 274.62ZM126.456 275.128C126.072 275.128 125.725 275.035 125.416 274.848C125.109 274.661 124.865 274.404 124.684 274.076C124.505 273.748 124.416 273.373 124.416 272.952C124.416 272.533 124.505 272.161 124.684 271.836C124.862 271.508 125.105 271.249 125.412 271.06C125.721 270.871 126.072 270.776 126.464 270.776C126.829 270.776 127.16 270.863 127.456 271.036C127.752 271.209 127.984 271.449 128.152 271.756V268.116H128.736V275H128.152V274.136C127.978 274.445 127.742 274.688 127.444 274.864C127.148 275.04 126.818 275.128 126.456 275.128ZM126.596 274.62C126.902 274.62 127.174 274.549 127.412 274.408C127.649 274.264 127.836 274.067 127.972 273.816C128.108 273.563 128.176 273.276 128.176 272.956C128.176 272.631 128.108 272.343 127.972 272.092C127.838 271.839 127.652 271.641 127.412 271.5C127.174 271.356 126.902 271.284 126.596 271.284C126.292 271.284 126.021 271.356 125.784 271.5C125.546 271.641 125.36 271.839 125.224 272.092C125.088 272.343 125.02 272.631 125.02 272.956C125.02 273.279 125.086 273.565 125.22 273.816C125.356 274.067 125.542 274.264 125.78 274.408C126.02 274.549 126.292 274.62 126.596 274.62ZM132.378 275.128C131.948 275.128 131.564 275.033 131.226 274.844C130.89 274.655 130.626 274.397 130.434 274.072C130.242 273.744 130.146 273.376 130.146 272.968C130.146 272.661 130.2 272.376 130.31 272.112C130.422 271.845 130.576 271.612 130.774 271.412C130.971 271.212 131.2 271.056 131.462 270.944C131.723 270.832 132.002 270.776 132.298 270.776C132.703 270.776 133.063 270.865 133.378 271.044C133.695 271.22 133.946 271.464 134.13 271.776C134.316 272.088 134.415 272.448 134.426 272.856C134.426 272.888 134.424 272.915 134.422 272.936C134.422 272.955 134.419 272.979 134.414 273.008H130.726C130.726 273.328 130.798 273.611 130.942 273.856C131.086 274.101 131.283 274.295 131.534 274.436C131.787 274.575 132.076 274.644 132.402 274.644C132.711 274.644 132.988 274.58 133.234 274.452C133.482 274.321 133.688 274.135 133.854 273.892L134.286 274.124C134.091 274.441 133.826 274.688 133.49 274.864C133.156 275.04 132.786 275.128 132.378 275.128ZM130.758 272.568H133.842C133.807 272.312 133.718 272.087 133.574 271.892C133.43 271.695 133.247 271.54 133.026 271.428C132.807 271.316 132.567 271.26 132.306 271.26C132.036 271.26 131.791 271.316 131.57 271.428C131.348 271.537 131.166 271.691 131.022 271.888C130.88 272.083 130.792 272.309 130.758 272.568ZM82.6647 286.08V279.904H83.2487V280.752C83.414 280.445 83.6447 280.207 83.9407 280.036C84.2394 279.863 84.57 279.776 84.9327 279.776C85.3247 279.776 85.6754 279.871 85.9847 280.06C86.294 280.249 86.538 280.508 86.7167 280.836C86.8954 281.161 86.9847 281.533 86.9847 281.952C86.9847 282.365 86.8954 282.737 86.7167 283.068C86.5407 283.396 86.298 283.655 85.9887 283.844C85.682 284.033 85.3327 284.128 84.9407 284.128C84.5834 284.128 84.2554 284.04 83.9567 283.864C83.658 283.688 83.422 283.445 83.2487 283.136V286.08H82.6647ZM84.8047 283.62C85.1114 283.62 85.3834 283.549 85.6207 283.408C85.858 283.264 86.0434 283.067 86.1767 282.816C86.3127 282.565 86.3807 282.279 86.3807 281.956C86.3807 281.631 86.3127 281.343 86.1767 281.092C86.0407 280.839 85.854 280.641 85.6167 280.5C85.382 280.356 85.1114 280.284 84.8047 280.284C84.498 280.284 84.226 280.356 83.9887 280.5C83.7514 280.641 83.5647 280.837 83.4287 281.088C83.2927 281.339 83.2247 281.627 83.2247 281.952C83.2247 282.275 83.2927 282.563 83.4287 282.816C83.5647 283.067 83.7514 283.264 83.9887 283.408C84.2287 283.549 84.5007 283.62 84.8047 283.62ZM88.4147 284V279.904H88.9987V280.508C89.1294 280.268 89.2974 280.087 89.5027 279.964C89.7107 279.839 89.9507 279.776 90.2227 279.776C90.3427 279.776 90.464 279.789 90.5867 279.816C90.712 279.843 90.82 279.877 90.9107 279.92L90.6707 280.412C90.5907 280.372 90.4987 280.341 90.3947 280.32C90.2934 280.299 90.196 280.288 90.1027 280.288C89.9134 280.288 89.7347 280.336 89.5667 280.432C89.3987 280.528 89.2614 280.653 89.1547 280.808C89.0507 280.96 88.9987 281.123 88.9987 281.296V284H88.4147ZM93.8941 284.128C93.4675 284.128 93.0821 284.036 92.7381 283.852C92.3968 283.668 92.1261 283.412 91.9261 283.084C91.7261 282.756 91.6261 282.379 91.6261 281.952C91.6261 281.523 91.7261 281.145 91.9261 280.82C92.1261 280.492 92.3968 280.236 92.7381 280.052C93.0795 279.868 93.4648 279.776 93.8941 279.776C94.3208 279.776 94.7048 279.868 95.0461 280.052C95.3901 280.236 95.6621 280.492 95.8621 280.82C96.0621 281.145 96.1621 281.523 96.1621 281.952C96.1621 282.379 96.0621 282.756 95.8621 283.084C95.6621 283.412 95.3901 283.668 95.0461 283.852C94.7048 284.036 94.3208 284.128 93.8941 284.128ZM93.8941 283.608C94.2141 283.608 94.4995 283.537 94.7501 283.396C95.0008 283.255 95.1981 283.06 95.3421 282.812C95.4861 282.561 95.5581 282.275 95.5581 281.952C95.5581 281.629 95.4861 281.344 95.3421 281.096C95.1981 280.845 95.0008 280.649 94.7501 280.508C94.4995 280.367 94.2141 280.296 93.8941 280.296C93.5741 280.296 93.2888 280.367 93.0381 280.508C92.7875 280.649 92.5901 280.845 92.4461 281.096C92.3021 281.344 92.2301 281.629 92.2301 281.952C92.2301 282.272 92.3021 282.557 92.4461 282.808C92.5901 283.059 92.7875 283.255 93.0381 283.396C93.2888 283.537 93.5741 283.608 93.8941 283.608ZM98.5519 284.128C98.2452 284.128 98.0065 284.025 97.8359 283.82C97.6679 283.612 97.5839 283.32 97.5839 282.944V280.344H97.1679V279.904H97.5839V278.372H98.1679V279.904H99.1879V280.344H98.1679V282.912C98.1679 283.139 98.2119 283.312 98.2999 283.432C98.3879 283.552 98.5132 283.612 98.6759 283.612C98.8332 283.612 98.9719 283.568 99.0919 283.48L99.2399 283.944C99.1492 284 99.0425 284.044 98.9199 284.076C98.7972 284.111 98.6745 284.128 98.5519 284.128ZM102.436 284.128C102.007 284.128 101.623 284.033 101.284 283.844C100.948 283.655 100.684 283.397 100.492 283.072C100.3 282.744 100.204 282.376 100.204 281.968C100.204 281.661 100.259 281.376 100.368 281.112C100.48 280.845 100.635 280.612 100.832 280.412C101.03 280.212 101.259 280.056 101.52 279.944C101.782 279.832 102.06 279.776 102.356 279.776C102.762 279.776 103.122 279.865 103.436 280.044C103.754 280.22 104.004 280.464 104.188 280.776C104.375 281.088 104.474 281.448 104.484 281.856C104.484 281.888 104.483 281.915 104.48 281.936C104.48 281.955 104.478 281.979 104.472 282.008H100.784C100.784 282.328 100.856 282.611 101 282.856C101.144 283.101 101.342 283.295 101.592 283.436C101.846 283.575 102.135 283.644 102.46 283.644C102.77 283.644 103.047 283.58 103.292 283.452C103.54 283.321 103.747 283.135 103.912 282.892L104.344 283.124C104.15 283.441 103.884 283.688 103.548 283.864C103.215 284.04 102.844 284.128 102.436 284.128ZM100.816 281.568H103.9C103.866 281.312 103.776 281.087 103.632 280.892C103.488 280.695 103.306 280.54 103.084 280.428C102.866 280.316 102.626 280.26 102.364 280.26C102.095 280.26 101.85 280.316 101.628 280.428C101.407 280.537 101.224 280.691 101.08 280.888C100.939 281.083 100.851 281.309 100.816 281.568ZM105.86 284V279.904H106.444V284H105.86ZM106.108 279.368L105.808 279.148L106.568 277.632L107.028 277.96L106.108 279.368ZM108.165 284V279.904H108.749V280.464C108.861 280.272 109.034 280.109 109.269 279.976C109.503 279.843 109.79 279.776 110.129 279.776C110.446 279.776 110.719 279.841 110.949 279.972C111.178 280.103 111.354 280.293 111.477 280.544C111.599 280.792 111.661 281.092 111.661 281.444V284H111.077V281.556C111.077 281.132 110.978 280.809 110.781 280.588C110.583 280.364 110.305 280.252 109.945 280.252C109.694 280.252 109.479 280.303 109.301 280.404C109.125 280.503 108.989 280.635 108.893 280.8C108.797 280.963 108.749 281.14 108.749 281.332V284H108.165ZM115.053 284.128C114.669 284.128 114.323 284.035 114.013 283.848C113.707 283.659 113.463 283.4 113.281 283.072C113.103 282.744 113.013 282.369 113.013 281.948C113.013 281.532 113.101 281.161 113.277 280.836C113.456 280.508 113.699 280.249 114.005 280.06C114.315 279.871 114.664 279.776 115.053 279.776C115.424 279.776 115.76 279.863 116.061 280.036C116.363 280.209 116.592 280.449 116.749 280.756V279.904H117.333V284H116.749V283.136C116.573 283.445 116.337 283.688 116.041 283.864C115.745 284.04 115.416 284.128 115.053 284.128ZM115.197 283.62C115.504 283.62 115.775 283.549 116.009 283.408C116.247 283.264 116.433 283.067 116.569 282.816C116.705 282.563 116.773 282.275 116.773 281.952C116.773 281.627 116.705 281.339 116.569 281.088C116.436 280.837 116.251 280.641 116.013 280.5C115.776 280.356 115.504 280.284 115.197 280.284C114.891 280.284 114.619 280.356 114.381 280.5C114.144 280.641 113.957 280.837 113.821 281.088C113.685 281.339 113.617 281.627 113.617 281.952C113.617 282.275 113.685 282.563 113.821 282.816C113.957 283.067 114.144 283.264 114.381 283.408C114.619 283.549 114.891 283.62 115.197 283.62Z" fill="black"/>
<path d="M62.137 251.94C62.1904 251.84 62.2804 251.77 62.407 251.73C62.5337 251.69 62.6937 251.67 62.887 251.67C63.0804 251.67 63.2337 251.687 63.347 251.72C63.4604 251.753 63.547 251.793 63.607 251.84C63.667 251.887 63.7137 251.953 63.747 252.04C63.7804 252.153 63.797 252.327 63.797 252.56V258.11C63.797 258.263 63.7904 258.38 63.777 258.46C63.7704 258.533 63.7404 258.62 63.687 258.72C63.5937 258.9 63.3337 258.99 62.907 258.99C62.4404 258.99 62.167 258.867 62.087 258.62C62.047 258.507 62.027 258.333 62.027 258.1V256.07H59.377V258.11C59.377 258.263 59.3704 258.38 59.357 258.46C59.3504 258.533 59.3204 258.62 59.267 258.72C59.1737 258.9 58.9137 258.99 58.487 258.99C58.0204 258.99 57.747 258.867 57.667 258.62C57.627 258.507 57.607 258.333 57.607 258.1V252.55C57.607 252.397 57.6104 252.283 57.617 252.21C57.6304 252.13 57.6637 252.04 57.717 251.94C57.8104 251.76 58.0704 251.67 58.497 251.67C58.9637 251.67 59.2404 251.793 59.327 252.04C59.3604 252.153 59.377 252.327 59.377 252.56V254.6H62.027V252.55C62.027 252.397 62.0304 252.283 62.037 252.21C62.0504 252.13 62.0837 252.04 62.137 251.94ZM68.0392 251.58C69.0259 251.58 69.8826 251.937 70.6092 252.65C71.3359 253.363 71.6992 254.25 71.6992 255.31C71.6992 256.363 71.3526 257.263 70.6592 258.01C69.9659 258.75 69.1126 259.12 68.0992 259.12C67.0859 259.12 66.2226 258.753 65.5092 258.02C64.8026 257.287 64.4492 256.413 64.4492 255.4C64.4492 254.847 64.5492 254.33 64.7492 253.85C64.9492 253.363 65.2159 252.957 65.5492 252.63C65.8826 252.303 66.2659 252.047 66.6992 251.86C67.1326 251.673 67.5792 251.58 68.0392 251.58ZM66.2192 255.35C66.2192 255.943 66.4092 256.427 66.7892 256.8C67.1759 257.167 67.6059 257.35 68.0792 257.35C68.5526 257.35 68.9792 257.17 69.3592 256.81C69.7392 256.45 69.9292 255.967 69.9292 255.36C69.9292 254.753 69.7359 254.267 69.3492 253.9C68.9692 253.533 68.5426 253.35 68.0692 253.35C67.5959 253.35 67.1692 253.537 66.7892 253.91C66.4092 254.277 66.2192 254.757 66.2192 255.35ZM80.1431 251.95C80.1965 252.05 80.2265 252.14 80.2331 252.22C80.2465 252.3 80.2531 252.417 80.2531 252.57V258.12C80.2531 258.58 80.1265 258.85 79.8731 258.93C79.7465 258.97 79.5865 258.99 79.3931 258.99C79.1998 258.99 79.0465 258.973 78.9331 258.94C78.8198 258.907 78.7331 258.867 78.6731 258.82C78.6131 258.773 78.5665 258.707 78.5331 258.62C78.4998 258.507 78.4831 258.333 78.4831 258.1V254.75C78.3165 254.957 78.0731 255.287 77.7531 255.74C77.4331 256.187 77.2298 256.467 77.1431 256.58C77.0565 256.693 76.9965 256.773 76.9631 256.82C76.9298 256.86 76.8465 256.92 76.7131 257C76.5865 257.073 76.4465 257.11 76.2931 257.11C76.1465 257.11 76.0098 257.077 75.8831 257.01C75.7631 256.937 75.6765 256.867 75.6231 256.8L75.5431 256.69C75.4098 256.523 75.1465 256.17 74.7531 255.63C74.3598 255.083 74.1465 254.79 74.1131 254.75V258.12C74.1131 258.273 74.1065 258.39 74.0931 258.47C74.0865 258.543 74.0565 258.627 74.0031 258.72C73.9031 258.9 73.6431 258.99 73.2231 258.99C72.8165 258.99 72.5631 258.9 72.4631 258.72C72.4098 258.627 72.3765 258.54 72.3631 258.46C72.3565 258.38 72.3531 258.26 72.3531 258.1V252.55C72.3531 252.397 72.3565 252.283 72.3631 252.21C72.3765 252.13 72.4098 252.04 72.4631 251.94C72.5631 251.767 72.8231 251.68 73.2431 251.68C73.4231 251.68 73.5765 251.703 73.7031 251.75C73.8365 251.79 73.9231 251.833 73.9631 251.88L74.0231 251.94L76.2931 254.92C77.4265 253.42 78.1831 252.43 78.5631 251.95C78.6765 251.77 78.9431 251.68 79.3631 251.68C79.7898 251.68 80.0498 251.77 80.1431 251.95ZM86.2743 255.07C86.6676 255.537 86.8643 256.06 86.8643 256.64C86.851 257.307 86.621 257.867 86.1743 258.32C85.7343 258.767 85.1976 258.99 84.5643 258.99H81.9343C81.4676 258.99 81.1943 258.863 81.1143 258.61C81.0743 258.497 81.0543 258.323 81.0543 258.09V252.54C81.0543 252.38 81.0576 252.263 81.0643 252.19C81.0776 252.117 81.111 252.03 81.1643 251.93C81.2576 251.75 81.5176 251.66 81.9443 251.66H84.4643C85.0776 251.66 85.591 251.873 86.0043 252.3C86.4376 252.733 86.6543 253.253 86.6543 253.86C86.6543 254.3 86.5276 254.703 86.2743 255.07ZM85.0943 256.54C85.0943 256.38 85.0743 256.253 85.0343 256.16C85.001 256.067 84.941 256 84.8543 255.96C84.721 255.907 84.5343 255.88 84.2943 255.88C84.0543 255.88 83.8743 255.833 83.7543 255.74C83.6343 255.647 83.5743 255.457 83.5743 255.17C83.5743 254.877 83.6343 254.683 83.7543 254.59C83.881 254.497 84.0876 254.45 84.3743 254.45C84.641 254.45 84.801 254.38 84.8543 254.24C84.8743 254.167 84.8843 254.047 84.8843 253.88C84.8843 253.713 84.8276 253.597 84.7143 253.53C84.6076 253.463 84.4443 253.43 84.2243 253.43H82.8243V257.22H84.4643C84.8843 257.22 85.0943 256.993 85.0943 256.54ZM93.1291 257.76C93.2291 258 93.2791 258.173 93.2791 258.28C93.2791 258.533 93.0725 258.747 92.6591 258.92C92.4458 259.013 92.2725 259.06 92.1391 259.06C92.0125 259.06 91.9058 259.03 91.8191 258.97C91.7391 258.903 91.6791 258.837 91.6391 258.77C91.5725 258.643 91.3125 258.04 90.8591 256.96L90.5491 256.98H89.2891V258.11C89.2891 258.263 89.2825 258.38 89.2691 258.46C89.2625 258.533 89.2325 258.62 89.1791 258.72C89.0858 258.9 88.8258 258.99 88.3991 258.99C87.9325 258.99 87.6591 258.867 87.5791 258.62C87.5391 258.507 87.5191 258.333 87.5191 258.1V252.55C87.5191 252.397 87.5225 252.283 87.5291 252.21C87.5425 252.13 87.5758 252.04 87.6291 251.94C87.7225 251.76 87.9825 251.67 88.4091 251.67H90.5691C91.1558 251.67 91.7258 251.883 92.2791 252.31C92.5458 252.517 92.7658 252.797 92.9391 253.15C93.1125 253.503 93.1991 253.897 93.1991 254.33C93.1991 255.083 92.9491 255.703 92.4491 256.19C92.5958 256.543 92.8225 257.067 93.1291 257.76ZM89.2891 255.21H90.5691C90.7625 255.21 90.9558 255.137 91.1491 254.99C91.3425 254.843 91.4391 254.623 91.4391 254.33C91.4391 254.037 91.3425 253.817 91.1491 253.67C90.9558 253.517 90.7558 253.44 90.5491 253.44H89.2891V255.21ZM95.5977 257.23H98.6777C98.8311 257.23 98.9444 257.237 99.0177 257.25C99.0977 257.257 99.1877 257.287 99.2877 257.34C99.4677 257.433 99.5577 257.693 99.5577 258.12C99.5577 258.587 99.4344 258.86 99.1877 258.94C99.0744 258.98 98.9011 259 98.6677 259H94.7077C94.2411 259 93.9677 258.873 93.8877 258.62C93.8477 258.513 93.8277 258.343 93.8277 258.11V252.55C93.8277 252.21 93.8911 251.98 94.0177 251.86C94.1444 251.733 94.3844 251.67 94.7377 251.67H98.6777C98.8311 251.67 98.9444 251.677 99.0177 251.69C99.0977 251.697 99.1877 251.727 99.2877 251.78C99.4677 251.873 99.5577 252.133 99.5577 252.56C99.5577 253.027 99.4344 253.3 99.1877 253.38C99.0744 253.42 98.9011 253.44 98.6677 253.44H95.5977V254.45H97.5777C97.7311 254.45 97.8444 254.457 97.9177 254.47C97.9977 254.477 98.0877 254.507 98.1877 254.56C98.3677 254.653 98.4577 254.913 98.4577 255.34C98.4577 255.807 98.3311 256.08 98.0777 256.16C97.9644 256.2 97.7911 256.22 97.5577 256.22H95.5977V257.23ZM103.624 251.66L105.474 251.67C106.441 251.67 107.291 252.02 108.024 252.72C108.757 253.413 109.124 254.27 109.124 255.29C109.124 256.303 108.764 257.173 108.044 257.9C107.331 258.627 106.464 258.99 105.444 258.99H103.614C103.207 258.99 102.954 258.907 102.854 258.74C102.774 258.6 102.734 258.387 102.734 258.1V252.54C102.734 252.38 102.737 252.263 102.744 252.19C102.757 252.117 102.791 252.03 102.844 251.93C102.937 251.75 103.197 251.66 103.624 251.66ZM105.474 257.22C105.954 257.22 106.387 257.043 106.774 256.69C107.161 256.33 107.354 255.88 107.354 255.34C107.354 254.8 107.164 254.35 106.784 253.99C106.411 253.623 105.971 253.44 105.464 253.44H104.504V257.22H105.474ZM111.545 257.23H114.625C114.778 257.23 114.892 257.237 114.965 257.25C115.045 257.257 115.135 257.287 115.235 257.34C115.415 257.433 115.505 257.693 115.505 258.12C115.505 258.587 115.382 258.86 115.135 258.94C115.022 258.98 114.848 259 114.615 259H110.655C110.188 259 109.915 258.873 109.835 258.62C109.795 258.513 109.775 258.343 109.775 258.11V252.55C109.775 252.21 109.838 251.98 109.965 251.86C110.092 251.733 110.332 251.67 110.685 251.67H114.625C114.778 251.67 114.892 251.677 114.965 251.69C115.045 251.697 115.135 251.727 115.235 251.78C115.415 251.873 115.505 252.133 115.505 252.56C115.505 253.027 115.382 253.3 115.135 253.38C115.022 253.42 114.848 253.44 114.615 253.44H111.545V254.45H113.525C113.678 254.45 113.792 254.457 113.865 254.47C113.945 254.477 114.035 254.507 114.135 254.56C114.315 254.653 114.405 254.913 114.405 255.34C114.405 255.807 114.278 256.08 114.025 256.16C113.912 256.2 113.738 256.22 113.505 256.22H111.545V257.23ZM122.861 251.68C123.328 251.68 123.601 251.807 123.681 252.06C123.721 252.167 123.741 252.353 123.741 252.62C123.741 252.887 123.655 253.22 123.481 253.62C123.308 254.013 123.098 254.403 122.851 254.79C122.611 255.177 122.368 255.567 122.121 255.96C121.535 256.913 121.241 257.68 121.241 258.26C121.241 258.407 121.235 258.517 121.221 258.59C121.208 258.657 121.175 258.73 121.121 258.81C121.068 258.883 120.978 258.933 120.851 258.96C120.731 258.987 120.565 259 120.351 259C120.138 259 119.968 258.987 119.841 258.96C119.721 258.933 119.635 258.88 119.581 258.8C119.528 258.72 119.495 258.647 119.481 258.58C119.475 258.507 119.471 258.393 119.471 258.24C119.471 257.807 119.545 257.363 119.691 256.91C119.838 256.45 120.015 256.04 120.221 255.68C120.428 255.32 120.635 254.99 120.841 254.69C121.048 254.383 121.225 254.123 121.371 253.91C121.518 253.69 121.591 253.537 121.591 253.45H119.311C119.045 253.45 118.851 253.417 118.731 253.35C118.611 253.283 118.531 253.187 118.491 253.06C118.451 252.933 118.431 252.767 118.431 252.56C118.431 252.353 118.451 252.187 118.491 252.06C118.531 251.933 118.595 251.847 118.681 251.8C118.821 251.72 119.015 251.68 119.261 251.68H122.861ZM124.897 252.52C125.09 252.247 125.36 252.02 125.707 251.84C126.06 251.653 126.467 251.56 126.927 251.56C127.387 251.56 127.787 251.65 128.127 251.83C128.473 252.01 128.743 252.233 128.937 252.5C129.137 252.767 129.297 253.08 129.417 253.44C129.617 254.04 129.717 254.677 129.717 255.35C129.717 256.557 129.457 257.513 128.937 258.22C128.743 258.487 128.473 258.707 128.127 258.88C127.787 259.053 127.39 259.14 126.937 259.14C126.483 259.14 126.08 259.053 125.727 258.88C125.38 258.7 125.107 258.48 124.907 258.22C124.713 257.96 124.553 257.65 124.427 257.29C124.233 256.717 124.137 256.067 124.137 255.34C124.137 254.673 124.213 254.103 124.367 253.63C124.527 253.157 124.703 252.787 124.897 252.52ZM126.917 257.36C127.603 257.36 127.947 256.707 127.947 255.4V255.34C127.947 254 127.607 253.33 126.927 253.33C126.247 253.33 125.907 254.003 125.907 255.35C125.907 256.69 126.243 257.36 126.917 257.36ZM133.511 255.32C134.531 256.3 135.254 257.037 135.681 257.53C135.901 257.777 136.011 257.987 136.011 258.16C136.011 258.327 135.877 258.527 135.611 258.76C135.344 258.987 135.124 259.1 134.951 259.1C134.784 259.1 134.581 258.96 134.341 258.68L132.141 256.17V258.12C132.141 258.28 132.134 258.397 132.121 258.47C132.114 258.543 132.084 258.63 132.031 258.73C131.937 258.91 131.677 259 131.251 259C130.784 259 130.511 258.873 130.431 258.62C130.391 258.513 130.371 258.343 130.371 258.11V252.55C130.371 252.397 130.374 252.283 130.381 252.21C130.394 252.13 130.427 252.04 130.481 251.94C130.574 251.76 130.834 251.67 131.261 251.67C131.727 251.67 132.004 251.793 132.091 252.04C132.124 252.153 132.141 252.327 132.141 252.56V254.47C133.047 253.45 133.781 252.613 134.341 251.96C134.574 251.687 134.777 251.55 134.951 251.55C135.124 251.55 135.344 251.667 135.611 251.9C135.877 252.127 136.011 252.327 136.011 252.5C136.011 252.667 135.911 252.867 135.711 253.1C135.324 253.547 134.724 254.16 133.911 254.94L133.511 255.32ZM139.874 254.58H141.634C141.994 254.593 142.214 254.687 142.294 254.86C142.361 254.987 142.394 255.173 142.394 255.42V257.62C142.394 257.833 142.301 258.037 142.114 258.23C141.554 258.81 140.714 259.1 139.594 259.1C138.601 259.1 137.738 258.727 137.004 257.98C136.271 257.227 135.904 256.32 135.904 255.26C135.904 254.2 136.278 253.317 137.024 252.61C137.771 251.897 138.651 251.54 139.664 251.54C140.451 251.54 141.194 251.8 141.894 252.32C142.074 252.453 142.164 252.603 142.164 252.77C142.164 252.93 142.088 253.117 141.934 253.33C141.674 253.683 141.438 253.86 141.224 253.86C141.098 253.86 140.894 253.77 140.614 253.59C140.334 253.403 140.001 253.31 139.614 253.31C139.108 253.31 138.658 253.49 138.264 253.85C137.871 254.203 137.674 254.67 137.674 255.25C137.674 255.823 137.874 256.313 138.274 256.72C138.674 257.12 139.128 257.32 139.634 257.32C140.001 257.32 140.331 257.26 140.624 257.14V256.05H139.834C139.628 256.05 139.481 256.023 139.394 255.97C139.308 255.917 139.251 255.84 139.224 255.74C139.198 255.633 139.184 255.493 139.184 255.32C139.184 255.14 139.198 254.997 139.224 254.89C139.258 254.783 139.314 254.71 139.394 254.67C139.514 254.61 139.674 254.58 139.874 254.58Z" fill="#7C6BAF"/>
<g clip-path="url(#clip0_715_2)">
<path d="M107.689 226.794H98.6244L83.6396 234.49L109.411 234.195L107.689 226.794Z" fill="#D8D8D8"/>
<path d="M103.087 235.97C103.497 235.97 103.891 236.132 104.183 236.421C104.474 236.711 104.64 237.104 104.644 237.515L109.501 237.465L109.411 234.21L83.6396 234.515L83.7295 237.77L101.529 237.565C101.526 237.357 101.563 237.151 101.639 236.958C101.716 236.765 101.83 236.589 101.975 236.441C102.12 236.292 102.293 236.174 102.484 236.093C102.674 236.012 102.88 235.97 103.087 235.97Z" fill="black" stroke="black" stroke-miterlimit="10"/>
<path d="M92.3604 229.629C92.8514 229.547 93.3558 229.621 93.8032 229.839C94.2506 230.058 94.6187 230.411 94.8561 230.85" fill="black"/>
<path d="M92.3604 229.629C92.8514 229.547 93.3558 229.621 93.8032 229.839C94.2506 230.058 94.6187 230.411 94.8561 230.85" stroke="black" stroke-width="1.42" stroke-linecap="round" stroke-linejoin="round"/>
<path d="M94.8711 228.369C95.3622 228.286 95.8672 228.358 96.3149 228.577C96.7627 228.796 97.1306 229.15 97.3669 229.589" fill="black"/>
<path d="M94.8711 228.369C95.3622 228.286 95.8672 228.358 96.3149 228.577C96.7627 228.796 97.1306 229.15 97.3669 229.589" stroke="black" stroke-width="1.42" stroke-linecap="round" stroke-linejoin="round"/>
<path d="M107.69 214.528H98.4502V226.794H107.69V214.528Z" fill="#DEA28A"/>
<path d="M118.946 226.794H128.01L142.995 234.49L117.229 234.195L118.946 226.794Z" fill="#D8D8D8"/>
<path d="M123.548 235.97C123.138 235.97 122.744 236.132 122.452 236.421C122.16 236.711 121.995 237.104 121.991 237.515L117.134 237.465L117.224 234.21L143 234.505L142.91 237.76L125.105 237.555C125.108 237.348 125.07 237.143 124.993 236.951C124.916 236.759 124.801 236.584 124.657 236.437C124.512 236.29 124.339 236.173 124.149 236.092C123.959 236.012 123.754 235.97 123.548 235.97Z" fill="black"/>
<path d="M134.275 229.629C134.275 229.629 133.107 229.249 132.278 230.849L134.275 229.629Z" fill="black"/>
<path d="M134.275 229.629C134.275 229.629 133.107 229.249 132.278 230.849" stroke="black" stroke-width="1.42" stroke-linecap="round" stroke-linejoin="round"/>
<path d="M131.763 228.369C131.272 228.286 130.768 228.359 130.32 228.578C129.872 228.797 129.504 229.15 129.268 229.589" fill="black"/>
<path d="M131.763 228.369C131.272 228.286 130.768 228.359 130.32 228.578C129.872 228.797 129.504 229.15 129.268 229.589" stroke="black" stroke-width="1.42" stroke-linecap="round" stroke-linejoin="round"/>
<path d="M118.945 226.794H128.185V214.528H118.945V226.794Z" fill="#DEA28A"/>
<path d="M128.984 123.322L129.333 216.983H117.643L113.56 124.407L128.984 123.322Z" fill="#C5D751"/>
<path d="M117.722 216.373L129.667 216.253C129.775 216.234 129.885 216.239 129.991 216.268C130.097 216.296 130.195 216.347 130.279 216.418C130.362 216.488 130.43 216.577 130.476 216.676C130.522 216.775 130.546 216.884 130.546 216.993V221.954C130.545 222.115 130.494 222.271 130.399 222.401C130.304 222.53 130.17 222.626 130.016 222.674H117.303C117.156 222.622 117.028 222.525 116.939 222.396C116.849 222.268 116.802 222.115 116.804 221.959V217.108C116.804 216.995 116.83 216.884 116.879 216.782C116.928 216.68 116.999 216.591 117.087 216.52C117.175 216.45 117.278 216.4 117.388 216.374C117.498 216.349 117.612 216.349 117.722 216.373Z" fill="#C5D751"/>
<path d="M117.723 216.373L129.343 216.243" stroke="#2C2C2C" stroke-width="1.01" stroke-miterlimit="10"/>
<path d="M97.4419 123.322L96.5684 216.983H108.783L112.866 124.407L97.4419 123.322Z" fill="#C5D751"/>
<path d="M108.483 216.428L96.4685 216.293C96.3328 216.269 96.1935 216.275 96.0604 216.311C95.9272 216.346 95.8035 216.411 95.6979 216.499C95.5923 216.588 95.5073 216.699 95.449 216.824C95.3907 216.949 95.3604 217.085 95.3604 217.223V221.809C95.3605 222.013 95.4267 222.213 95.549 222.377C95.6714 222.541 95.8433 222.661 96.0392 222.719H109.017C109.205 222.655 109.368 222.534 109.484 222.372C109.599 222.211 109.661 222.017 109.661 221.819V217.353C109.663 217.208 109.631 217.065 109.568 216.934C109.506 216.804 109.414 216.689 109.3 216.6C109.186 216.511 109.053 216.449 108.912 216.419C108.77 216.389 108.623 216.392 108.483 216.428Z" fill="#C5D751"/>
<path d="M96.5078 216.373L108.652 216.243" stroke="#2C2C2C" stroke-width="1.01" stroke-miterlimit="10"/>
<path d="M125.868 123.322H103.676V139.843H125.868V123.322Z" fill="#C5D751"/>
<path d="M117.328 139.843H107.46" stroke="#2C2C2C" stroke-width="1.01" stroke-miterlimit="10"/>
<path d="M135.717 133.257C135.717 133.257 133.721 135.447 135.328 139.128L134.724 142.958C134.678 143.245 134.738 143.539 134.891 143.786C135.044 144.033 135.28 144.216 135.557 144.303C135.857 144.394 136.181 144.365 136.46 144.222C136.739 144.08 136.952 143.835 137.055 143.538L137.804 141.328L137.973 142.123C138.246 143.386 138.085 144.704 137.514 145.863L135.892 149.163C135.801 149.348 135.762 149.553 135.777 149.758C135.793 149.963 135.864 150.16 135.982 150.328C136.087 150.483 136.228 150.61 136.392 150.697C136.557 150.785 136.741 150.831 136.928 150.831C137.114 150.831 137.298 150.785 137.463 150.697C137.628 150.61 137.769 150.483 137.874 150.328L140.549 146.273C141.063 145.498 141.404 144.621 141.551 143.703C141.697 142.784 141.645 141.845 141.398 140.948L139.526 132.007L135.717 133.257Z" fill="#DEA28A"/>
<path d="M135.717 133.257L127.82 96.3745C127.321 94.1094 129.687 91.1741 131.953 90.7191C132.546 90.6016 133.158 90.6154 133.745 90.7594C134.332 90.9034 134.881 91.1743 135.352 91.5529C135.824 91.9316 136.207 92.409 136.475 92.9516C136.744 93.4943 136.89 94.0891 136.905 94.6944L139.526 131.997L135.717 133.257Z" fill="#DEA28A"/>
<path d="M130.626 78.5032C130.626 78.5032 139.9 82.1484 139.9 102.315L124.486 102.91L130.626 78.5032Z" fill="#4AAEAD"/>
<path d="M67.9113 122.386C67.9113 122.386 68.4703 125.297 65.1709 127.587L63.6734 131.172C63.5622 131.441 63.3573 131.661 63.0967 131.791C62.836 131.921 62.5373 131.951 62.2558 131.877C61.9532 131.798 61.6933 131.604 61.5312 131.336C61.3691 131.068 61.3174 130.747 61.3873 130.442L61.8864 128.167L61.3523 128.757C60.4612 129.692 59.9108 130.9 59.79 132.187L59.4506 135.847C59.4312 136.052 59.357 136.248 59.2357 136.415C59.1145 136.581 58.9508 136.712 58.7617 136.792C58.5917 136.866 58.4062 136.898 58.2214 136.884C58.0365 136.87 57.8578 136.812 57.7006 136.713C57.5433 136.615 57.4124 136.479 57.319 136.319C57.2256 136.159 57.1725 135.978 57.1644 135.792L56.9997 130.922C56.9647 129.989 57.1308 129.06 57.4865 128.197C57.8422 127.334 58.3793 126.558 59.0612 125.922L65.3157 119.296L67.9113 122.386Z" fill="#DEA28A"/>
<path d="M67.9119 122.386L93.9081 95.0994C95.5054 93.4243 95.0412 89.689 93.344 88.0989C92.8996 87.688 92.3709 87.3796 91.7948 87.1953C91.2188 87.011 90.6094 86.9552 90.0096 87.032C89.4097 87.1087 88.8339 87.316 88.3226 87.6394C87.8112 87.9628 87.3768 88.3944 87.0497 88.9039L65.3213 119.311L67.9119 122.386Z" fill="#DEA28A"/>
<path d="M96.2388 78.5032C92.0609 80.7683 83.8896 87.1138 83.8896 87.1138L90.3338 101.215L104.34 95.3594L96.2388 78.5032Z" fill="#4AAEAD"/>
<path d="M121.351 74.3579L130.625 78.5032L129.802 129.882C129.802 129.882 114.088 132.882 96.9221 129.882L96.2383 78.5032L106.077 74.3679L121.351 74.3579Z" fill="#4AAEAD"/>
<path d="M130.231 102.68L130.256 89.7041" stroke="black" stroke-linecap="round" stroke-linejoin="round"/>
<path d="M96.5781 98.5997V89.144" stroke="black" stroke-linecap="round" stroke-linejoin="round"/>
<path d="M113.904 71.3376L121.351 74.3379C121.351 74.3379 115.766 78.4732 106.077 74.3379L113.904 71.3376Z" fill="#4AAEAD"/>
<path d="M107.994 42.6655C107.994 42.6655 102.693 41.8405 102.204 46.8108C101.804 50.8961 103.866 54.6464 103.866 54.6464L105.244 45.5007L107.994 42.6655Z" fill="#62302F"/>
<path d="M119.305 41.6455C119.305 41.6455 124.661 41.8205 125.24 46.7809C125.649 50.2761 123.388 54.5015 123.388 54.5015L122.04 45.5008L119.305 41.6455Z" fill="#62302F"/>
<path d="M104.669 54.3514C104.669 54.3514 102.992 53.0463 101.764 54.5964C99.9271 56.9516 103.162 61.2169 105.997 59.0017L104.669 54.3514Z" fill="#DEA28A"/>
<path d="M102.973 55.9314C102.973 55.9314 104.255 55.9314 104.924 57.6165" stroke="black" stroke-width="0.55" stroke-linecap="round" stroke-linejoin="round"/>
<path d="M122.554 54.3514C122.554 54.3514 124.231 53.0463 125.459 54.5964C127.321 56.9516 124.062 61.2169 121.227 59.0217L122.554 54.3514Z" fill="#DEA28A"/>
<path d="M124.252 55.9314C124.252 55.9314 122.929 55.9314 122.3 57.6165" stroke="black" stroke-width="0.55" stroke-linecap="round" stroke-linejoin="round"/>
<path d="M124.361 51.7588C125.562 45.8091 121.72 40.0108 115.781 38.8079C109.842 37.605 104.054 41.453 102.853 47.4027C101.652 53.3524 105.493 59.1507 111.433 60.3536C117.372 61.5565 123.16 57.7085 124.361 51.7588Z" fill="#62302F"/>
<path d="M110.409 64.307L109.596 74.4328H117.952L116.774 64.187L110.409 64.307Z" fill="#DEA28A"/>
<path d="M110.32 65.0571C110.6 65.1921 117.239 68.2173 117.239 68.2173L116.774 64.187L110.32 65.0571Z" fill="black"/>
<path d="M104.655 49.1109C104.655 49.1109 103.607 65.7671 113.35 65.7671C123.708 65.7671 122.874 49.1109 122.874 49.1109C122.874 49.1109 122.814 41.8203 113.685 41.8203C105.309 41.8203 104.655 49.1109 104.655 49.1109Z" fill="#DEA28A"/>
<path d="M110.459 54.1264C110.459 54.2836 110.413 54.4373 110.326 54.5681C110.238 54.6988 110.114 54.8007 109.969 54.8609C109.824 54.9211 109.665 54.9368 109.511 54.9061C109.357 54.8755 109.216 54.7997 109.105 54.6885C108.994 54.5774 108.918 54.4357 108.887 54.2815C108.857 54.1272 108.872 53.9674 108.932 53.8221C108.993 53.6768 109.094 53.5527 109.225 53.4653C109.355 53.3779 109.509 53.3313 109.666 53.3313C109.876 53.3313 110.078 53.4151 110.227 53.5642C110.376 53.7133 110.459 53.9155 110.459 54.1264Z" fill="#1E0B02"/>
<path d="M118.247 54.1264C118.247 54.2836 118.2 54.4373 118.113 54.5681C118.026 54.6988 117.902 54.8007 117.757 54.8609C117.612 54.9211 117.452 54.9368 117.298 54.9061C117.144 54.8755 117.003 54.7997 116.892 54.6885C116.781 54.5774 116.705 54.4357 116.674 54.2815C116.644 54.1272 116.66 53.9674 116.72 53.8221C116.78 53.6768 116.881 53.5527 117.012 53.4653C117.142 53.3779 117.296 53.3313 117.453 53.3313C117.663 53.3313 117.865 53.4151 118.014 53.5642C118.163 53.7133 118.247 53.9155 118.247 54.1264Z" fill="#1E0B02"/>
<path d="M113.175 56.2964V57.4815H114.093" stroke="black" stroke-width="0.55" stroke-linecap="round" stroke-linejoin="round"/>
<path d="M111.333 59.0017C111.333 59.0017 112.416 60.2318 115.192 59.4467" stroke="black" stroke-width="0.55" stroke-linecap="round" stroke-linejoin="round"/>
<path d="M106.756 50.9512L111.133 50.5561C111.257 50.5436 111.374 50.493 111.468 50.4115C111.562 50.3299 111.628 50.2212 111.659 50.1003C111.689 49.9794 111.681 49.8522 111.636 49.736C111.591 49.6198 111.511 49.5203 111.408 49.4511C110.64 48.9823 109.73 48.8049 108.842 48.951C107.942 49.0149 107.077 49.3301 106.346 49.8611C106.24 49.9393 106.163 50.05 106.125 50.1764C106.088 50.3027 106.093 50.4379 106.139 50.5613C106.186 50.6847 106.271 50.7896 106.382 50.8599C106.493 50.9303 106.625 50.9623 106.756 50.9512Z" fill="#62302F"/>
<path d="M119.589 50.9512L115.211 50.5562C115.087 50.5445 114.97 50.4946 114.875 50.4134C114.78 50.3321 114.713 50.2235 114.683 50.1024C114.652 49.9814 114.659 49.8538 114.704 49.7371C114.749 49.6205 114.828 49.5206 114.932 49.4511C115.698 48.9823 116.607 48.8048 117.493 48.9511C118.393 49.017 119.257 49.3321 119.988 49.8611C120.093 49.9389 120.17 50.0487 120.208 50.1739C120.245 50.2992 120.241 50.4332 120.196 50.556C120.151 50.6787 120.068 50.7836 119.958 50.8548C119.849 50.9261 119.719 50.9599 119.589 50.9512Z" fill="#62302F"/>
<path opacity="0.23" d="M108.448 50.9162L112.566 56.5016C112.566 56.5016 111.323 58.8768 109.346 58.6117L105.193 53.1663C105.193 53.1663 106.316 50.7662 108.448 50.9162Z" fill="white"/>
<path opacity="0.23" d="M117.897 50.9162L122.03 56.5016C122.03 56.5016 120.792 58.8768 118.81 58.6118L114.657 53.1514C114.657 53.1514 115.78 50.7662 117.897 50.9162Z" fill="white"/>
<path d="M112.906 54.8064C112.906 55.6035 112.67 56.3828 112.228 57.0455C111.786 57.7083 111.157 58.2249 110.422 58.5299C109.687 58.835 108.878 58.9148 108.098 58.7593C107.317 58.6038 106.6 58.2199 106.038 57.6563C105.475 57.0926 105.092 56.3745 104.937 55.5927C104.781 54.8109 104.861 54.0005 105.166 53.2641C105.47 52.5277 105.986 51.8982 106.647 51.4554C107.309 51.0125 108.087 50.7761 108.883 50.7761C109.95 50.7761 110.973 51.2007 111.727 51.9566C112.482 52.7124 112.906 53.7375 112.906 54.8064V54.8064Z" stroke="white" stroke-width="0.58" stroke-miterlimit="10"/>
<path d="M122.389 54.8064C122.39 55.605 122.155 56.3858 121.713 57.0502C121.27 57.7146 120.641 58.2326 119.905 58.5386C119.169 58.8446 118.358 58.925 117.577 58.7694C116.795 58.6139 116.077 58.2295 115.513 57.6648C114.949 57.1002 114.565 56.3807 114.41 55.5974C114.255 54.8142 114.335 54.0024 114.641 53.2649C114.946 52.5273 115.463 51.8971 116.126 51.4541C116.79 51.0111 117.569 50.7751 118.366 50.7761C119.433 50.7761 120.457 51.2007 121.211 51.9566C121.966 52.7124 122.389 53.7375 122.389 54.8064Z" stroke="white" stroke-width="0.58" stroke-miterlimit="10"/>
<path d="M112.905 54.8063C113.126 54.6939 113.371 54.6353 113.619 54.6353C113.867 54.6353 114.112 54.6939 114.333 54.8063" stroke="white" stroke-width="0.58" stroke-miterlimit="10"/>
<path d="M121.326 41.2754C121.326 41.2754 118.331 45.2307 123.363 49.276C123.388 49.286 124.546 44.4006 121.326 41.2754Z" fill="#62302F"/>
<path d="M106.387 41.2754C106.387 41.2754 109.382 45.2307 104.35 49.276C104.35 49.286 103.172 44.4006 106.387 41.2754Z" fill="#62302F"/>
<path d="M104.211 42.7155C104.211 42.7155 103.771 37.7951 109.651 37.7951C115.531 37.7951 120.358 39.3953 122.006 36C122.006 36 127.896 43.7806 117.773 45.7857C109.012 47.5009 104.525 45.6857 104.211 42.7155Z" fill="#62302F"/>
</g>
<defs>
<filter id="filter0_d_715_2" x="0" y="0" width="200" height="344" filterUnits="userSpaceOnUse" color-interpolation-filters="sRGB">
<feFlood flood-opacity="0" result="BackgroundImageFix"/>
<feColorMatrix in="SourceAlpha" type="matrix" values="0 0 0 0 0 0 0 0 0 0 0 0 0 0 0 0 0 0 127 0" result="hardAlpha"/>
<feMorphology radius="8" operator="dilate" in="SourceAlpha" result="effect1_dropShadow_715_2"/>
<feOffset dy="12"/>
<feGaussianBlur stdDeviation="12"/>
<feComposite in2="hardAlpha" operator="out"/>
<feColorMatrix type="matrix" values="0 0 0 0 0.486275 0 0 0 0 0.419608 0 0 0 0 0.686275 0 0 0 0.22 0"/>
<feBlend mode="normal" in2="BackgroundImageFix" result="effect1_dropShadow_715_2"/>
<feBlend mode="normal" in="SourceGraphic" in2="effect1_dropShadow_715_2" result="shape"/>
</filter>
<clipPath id="clip0_715_2">
<rect width="86" height="202" fill="white" transform="translate(57 36)"/>
</clipPath>
</defs>
</svg>
